<svg id="svg" version="1.1" width="400" height="61.45251396648045" viewBox="0 0 400 61.45251396648045" xmlns="http://www.w3.org/2000/svg" xmlns:xlink="http://www.w3.org/1999/xlink"><g id="svgg"><path id="path0" d="M1.917 0.166 C 1.692 0.529,1.910 2.082,2.217 2.309 C 2.385 2.433,2.481 2.643,2.430 2.776 C 2.378 2.911,2.410 2.972,2.502 2.915 C 2.593 2.859,2.676 2.893,2.688 2.990 C 2.699 3.087,2.718 3.228,2.729 3.304 C 2.768 3.559,3.293 3.985,3.423 3.867 C 3.495 3.803,3.507 3.879,3.450 4.037 C 3.384 4.222,3.471 4.411,3.696 4.568 C 3.913 4.721,4.005 4.913,3.940 5.081 C 3.880 5.238,3.906 5.308,4.002 5.249 C 4.093 5.193,4.167 5.268,4.167 5.417 C 4.167 5.578,4.244 5.639,4.359 5.567 C 4.470 5.499,4.507 5.521,4.446 5.619 C 4.388 5.713,4.489 5.961,4.670 6.171 C 4.852 6.380,5.000 6.620,5.000 6.704 C 5.000 6.951,5.448 7.328,5.590 7.200 C 5.661 7.136,5.673 7.215,5.615 7.375 C 5.558 7.535,5.567 7.667,5.636 7.667 C 5.842 7.667,6.335 8.609,6.204 8.753 C 6.138 8.827,6.172 8.836,6.280 8.774 C 6.403 8.703,6.555 8.878,6.687 9.243 C 6.803 9.563,6.933 9.790,6.976 9.746 C 7.051 9.671,7.491 10.302,7.950 11.142 C 8.068 11.358,8.116 11.613,8.057 11.710 C 7.997 11.806,8.025 11.837,8.119 11.779 C 8.367 11.626,9.056 12.280,8.947 12.565 C 8.896 12.697,8.967 12.849,9.104 12.902 C 9.242 12.954,9.313 13.065,9.262 13.148 C 9.210 13.231,9.281 13.341,9.418 13.394 C 9.555 13.447,9.667 13.609,9.667 13.755 C 9.667 13.900,9.742 13.973,9.833 13.917 C 9.979 13.826,10.011 13.892,9.996 14.253 C 9.989 14.442,10.425 14.793,10.563 14.709 C 10.644 14.660,10.676 14.723,10.634 14.848 C 10.554 15.089,10.680 15.293,11.292 15.910 C 11.498 16.118,11.667 16.355,11.667 16.437 C 11.667 16.519,11.815 16.679,11.995 16.792 C 12.177 16.905,12.283 17.103,12.233 17.234 C 12.179 17.376,12.349 17.625,12.654 17.851 C 12.936 18.059,13.167 18.320,13.167 18.430 C 13.167 18.541,13.279 18.674,13.417 18.727 C 13.554 18.780,13.667 18.967,13.667 19.144 C 13.667 19.321,13.921 19.689,14.232 19.962 C 14.543 20.235,14.847 20.614,14.907 20.804 C 14.968 20.994,15.169 21.198,15.354 21.257 C 15.562 21.322,15.655 21.457,15.597 21.607 C 15.545 21.743,15.576 21.806,15.669 21.749 C 15.759 21.693,15.843 21.726,15.854 21.823 C 15.866 21.921,15.894 22.075,15.917 22.167 C 15.940 22.258,15.968 22.415,15.979 22.514 C 15.991 22.613,16.092 22.664,16.205 22.626 C 16.317 22.589,16.486 22.622,16.580 22.701 C 16.673 22.780,16.900 22.960,17.083 23.101 C 17.267 23.243,17.323 23.311,17.208 23.253 C 16.927 23.110,16.946 23.237,17.292 23.802 C 17.456 24.071,17.684 24.245,17.815 24.201 C 17.956 24.154,18.001 24.197,17.930 24.312 C 17.863 24.420,17.921 24.500,18.068 24.500 C 18.226 24.500,18.286 24.595,18.227 24.750 C 18.166 24.908,18.229 25.000,18.399 25.000 C 18.640 25.000,18.742 25.192,18.686 25.542 C 18.676 25.610,18.734 25.667,18.816 25.667 C 18.897 25.667,19.006 25.774,19.056 25.906 C 19.158 26.170,19.132 26.176,17.431 26.220 C 16.676 26.240,16.254 26.322,16.208 26.459 C 16.170 26.575,16.063 26.622,15.970 26.565 C 15.607 26.340,14.351 26.381,14.259 26.620 C 14.202 26.767,14.047 26.818,13.845 26.754 C 13.667 26.697,13.385 26.721,13.219 26.806 C 12.668 27.089,12.089 27.306,11.607 27.411 C 10.923 27.561,9.650 28.183,9.288 28.546 C 9.027 28.807,8.935 28.821,8.708 28.636 C 8.475 28.447,8.453 28.457,8.547 28.708 C 8.648 28.977,8.499 29.083,8.113 29.016 C 8.037 29.002,8.023 29.069,8.081 29.163 C 8.139 29.256,8.102 29.333,8.000 29.333 C 7.898 29.333,7.868 29.421,7.934 29.528 C 8.017 29.662,7.961 29.687,7.756 29.609 C 7.431 29.484,6.948 29.782,7.094 30.017 C 7.143 30.097,7.068 30.118,6.925 30.064 C 6.763 30.001,6.667 30.057,6.667 30.212 C 6.667 30.527,6.223 30.918,6.141 30.674 C 6.109 30.579,5.865 30.688,5.599 30.917 C 5.333 31.146,5.176 31.333,5.250 31.333 C 5.324 31.333,5.175 31.514,4.919 31.734 C 4.623 31.988,4.489 32.232,4.553 32.399 C 4.612 32.551,4.575 32.646,4.466 32.623 C 4.362 32.601,4.196 32.739,4.096 32.930 C 3.996 33.121,3.834 33.250,3.737 33.218 C 3.640 33.186,3.453 33.367,3.322 33.621 C 3.191 33.875,3.046 34.121,3.000 34.167 C 2.858 34.309,2.263 35.574,2.256 35.750 C 2.253 35.842,2.117 36.016,1.956 36.136 C 1.794 36.257,1.704 36.426,1.757 36.511 C 1.810 36.597,1.774 36.667,1.677 36.667 C 1.579 36.667,1.500 36.860,1.500 37.095 C 1.500 37.331,1.387 37.637,1.248 37.775 C 1.110 37.914,1.042 38.099,1.096 38.187 C 1.151 38.276,1.113 38.448,1.011 38.570 C 0.910 38.691,0.879 38.925,0.942 39.090 C 1.010 39.266,0.991 39.347,0.895 39.288 C 0.660 39.143,0.278 40.584,0.278 41.615 C 0.278 42.102,0.215 42.500,0.139 42.500 C -0.054 42.500,-0.036 45.624,0.157 45.744 C 0.244 45.798,0.294 46.254,0.269 46.757 C 0.237 47.385,0.296 47.733,0.456 47.866 C 0.585 47.973,0.654 48.197,0.611 48.363 C 0.567 48.530,0.604 48.667,0.692 48.667 C 0.781 48.667,0.808 48.740,0.752 48.830 C 0.697 48.920,0.745 49.163,0.859 49.372 C 1.093 49.796,1.159 50.017,1.282 50.778 C 1.328 51.069,1.490 51.447,1.642 51.618 C 1.793 51.789,1.940 52.039,1.967 52.173 C 1.995 52.307,2.115 52.492,2.232 52.583 C 2.350 52.675,2.414 52.844,2.376 52.958 C 2.337 53.073,2.424 53.212,2.569 53.268 C 2.715 53.323,2.833 53.473,2.833 53.601 C 2.833 53.729,2.913 53.833,3.010 53.833 C 3.107 53.833,3.140 53.908,3.083 54.000 C 3.027 54.092,3.072 54.167,3.185 54.167 C 3.297 54.167,3.346 54.209,3.294 54.261 C 3.183 54.373,4.186 55.433,4.354 55.380 C 4.417 55.360,4.512 55.458,4.566 55.597 C 4.621 55.741,4.592 55.807,4.498 55.749 C 4.153 55.536,4.362 55.823,5.160 56.660 C 5.615 57.137,6.069 57.477,6.169 57.415 C 6.269 57.354,6.535 57.516,6.762 57.777 C 7.520 58.650,7.714 58.824,7.840 58.746 C 7.909 58.703,8.011 58.789,8.068 58.937 C 8.133 59.106,8.292 59.173,8.502 59.118 C 8.694 59.068,8.791 59.100,8.733 59.193 C 8.678 59.283,8.790 59.397,8.981 59.447 C 9.173 59.497,9.289 59.604,9.239 59.684 C 9.190 59.764,9.256 59.789,9.387 59.739 C 9.517 59.688,9.741 59.764,9.883 59.907 C 10.026 60.050,10.261 60.167,10.405 60.167 C 10.549 60.167,10.668 60.298,10.669 60.458 C 10.671 60.708,10.695 60.714,10.833 60.500 C 10.966 60.294,10.995 60.292,10.997 60.486 C 10.999 60.616,11.049 60.673,11.110 60.613 C 11.170 60.552,11.320 60.586,11.443 60.689 C 11.566 60.791,11.667 60.828,11.667 60.771 C 11.667 60.714,12.060 60.818,12.542 61.001 C 13.414 61.332,13.978 61.333,199.902 61.333 C 397.745 61.333,386.612 61.370,388.500 60.702 C 388.637 60.654,388.806 60.626,388.875 60.640 C 388.944 60.655,389.001 60.573,389.003 60.458 C 389.004 60.319,389.059 60.333,389.167 60.500 C 389.305 60.714,389.329 60.708,389.331 60.458 C 389.332 60.298,389.451 60.167,389.595 60.167 C 389.739 60.167,389.974 60.050,390.117 59.907 C 390.259 59.764,390.483 59.688,390.613 59.739 C 390.744 59.789,390.808 59.761,390.756 59.677 C 390.704 59.593,390.814 59.476,391.000 59.417 C 391.186 59.358,391.296 59.241,391.244 59.157 C 391.192 59.073,391.263 59.047,391.402 59.101 C 391.541 59.154,391.872 59.043,392.138 58.854 C 392.404 58.665,392.681 58.564,392.754 58.630 C 392.827 58.696,392.833 58.657,392.768 58.544 C 392.701 58.427,392.809 58.174,393.016 57.960 C 393.217 57.753,393.322 57.689,393.249 57.817 C 393.159 57.974,393.179 58.012,393.308 57.933 C 393.413 57.867,393.500 57.698,393.500 57.556 C 393.500 57.386,393.593 57.333,393.772 57.402 C 394.055 57.511,395.167 56.525,395.167 56.165 C 395.167 56.063,395.242 56.027,395.333 56.083 C 395.498 56.185,395.568 55.961,395.509 55.525 C 395.492 55.401,395.548 55.343,395.633 55.396 C 395.719 55.449,395.968 55.257,396.186 54.970 C 396.405 54.682,396.682 54.347,396.804 54.224 C 396.925 54.101,396.962 53.998,396.887 53.995 C 396.812 53.992,396.883 53.913,397.045 53.818 C 397.208 53.724,397.302 53.584,397.254 53.507 C 397.207 53.431,397.288 53.322,397.435 53.266 C 397.581 53.210,397.663 53.064,397.616 52.941 C 397.569 52.819,397.667 52.620,397.833 52.500 C 398.000 52.380,398.103 52.195,398.062 52.089 C 398.022 51.982,398.141 51.757,398.327 51.589 C 398.514 51.420,398.667 51.101,398.667 50.880 C 398.667 50.659,398.749 50.324,398.850 50.136 C 398.983 49.887,398.983 49.824,398.850 49.906 C 398.553 50.090,398.640 49.860,399.006 49.494 C 399.193 49.307,399.304 49.087,399.253 49.005 C 399.203 48.923,399.230 48.814,399.315 48.761 C 399.400 48.709,399.433 48.530,399.389 48.363 C 399.346 48.196,399.415 47.973,399.544 47.866 C 399.704 47.733,399.763 47.385,399.731 46.757 C 399.706 46.254,399.756 45.798,399.843 45.744 C 400.033 45.627,400.056 42.500,399.867 42.500 C 399.793 42.500,399.725 42.012,399.716 41.416 C 399.704 40.636,399.600 40.165,399.347 39.736 C 399.154 39.409,399.041 39.069,399.096 38.980 C 399.151 38.891,399.111 38.717,399.009 38.594 C 398.906 38.470,398.833 38.304,398.847 38.226 C 398.915 37.846,398.816 37.491,398.667 37.583 C 398.569 37.643,398.500 37.474,398.500 37.177 C 398.500 36.896,398.425 36.667,398.333 36.667 C 398.242 36.667,398.167 36.552,398.167 36.411 C 398.167 36.271,398.055 36.113,397.918 36.061 C 397.781 36.008,397.709 35.900,397.758 35.821 C 397.807 35.741,397.726 35.490,397.577 35.263 C 397.428 35.036,397.291 34.745,397.272 34.615 C 397.253 34.486,397.114 34.257,396.963 34.106 C 396.812 33.955,396.641 33.682,396.583 33.499 C 396.525 33.316,396.366 33.167,396.229 33.167 C 396.092 33.167,396.027 33.092,396.083 33.000 C 396.140 32.908,396.113 32.833,396.024 32.833 C 395.881 32.833,395.535 32.410,394.672 31.182 C 394.537 30.990,394.337 30.833,394.227 30.833 C 394.117 30.833,393.990 30.740,393.944 30.625 C 393.882 30.471,393.856 30.476,393.846 30.645 C 393.828 30.968,393.333 30.550,393.333 30.212 C 393.333 30.046,393.238 30.001,393.047 30.074 C 392.889 30.135,392.811 30.134,392.872 30.072 C 393.033 29.912,392.536 29.458,392.335 29.583 C 392.242 29.640,392.167 29.574,392.167 29.436 C 392.167 29.299,392.080 29.133,391.974 29.067 C 391.844 28.987,391.827 29.024,391.923 29.183 C 392.039 29.374,392.018 29.379,391.808 29.210 C 391.668 29.096,391.506 29.050,391.448 29.107 C 391.391 29.165,391.376 29.045,391.415 28.841 C 391.471 28.553,391.438 28.510,391.271 28.649 C 391.114 28.780,390.971 28.748,390.737 28.531 C 390.336 28.160,389.078 27.554,388.417 27.413 C 387.931 27.310,387.368 27.104,386.811 26.824 C 386.661 26.749,386.381 26.729,386.188 26.779 C 385.967 26.837,385.803 26.781,385.744 26.627 C 385.649 26.381,384.401 26.336,384.030 26.565 C 383.937 26.622,383.830 26.575,383.792 26.459 C 383.746 26.322,383.324 26.240,382.569 26.220 C 380.868 26.176,380.842 26.170,380.944 25.906 C 380.994 25.774,381.115 25.667,381.212 25.667 C 381.309 25.667,381.342 25.619,381.284 25.561 C 381.112 25.390,381.500 24.814,381.703 24.939 C 381.825 25.015,381.853 24.958,381.784 24.777 C 381.713 24.593,381.763 24.500,381.932 24.500 C 382.079 24.500,382.137 24.420,382.070 24.312 C 382.000 24.198,382.044 24.154,382.183 24.200 C 382.446 24.288,383.069 23.580,382.929 23.354 C 382.795 23.136,383.284 22.783,383.518 22.928 C 383.645 23.006,383.674 22.981,383.599 22.859 C 383.529 22.745,383.586 22.667,383.740 22.667 C 383.976 22.667,384.076 22.470,384.018 22.120 C 384.006 22.049,384.105 21.949,384.238 21.898 C 384.370 21.847,384.441 21.706,384.394 21.585 C 384.346 21.460,384.457 21.317,384.646 21.257 C 384.831 21.198,385.034 20.985,385.095 20.783 C 385.157 20.582,385.467 20.176,385.784 19.881 C 386.102 19.587,386.316 19.274,386.261 19.185 C 386.206 19.096,386.299 18.924,386.467 18.803 C 386.635 18.682,386.821 18.452,386.881 18.292 C 386.941 18.131,387.109 18.000,387.255 18.000 C 387.400 18.000,387.478 17.933,387.427 17.851 C 387.377 17.769,387.451 17.657,387.592 17.603 C 387.733 17.549,387.827 17.408,387.800 17.289 C 387.742 17.037,388.738 15.626,388.876 15.765 C 388.927 15.816,389.019 15.702,389.080 15.510 C 389.141 15.317,389.271 15.212,389.371 15.273 C 389.470 15.335,389.505 15.310,389.448 15.218 C 389.391 15.126,389.494 14.891,389.676 14.695 C 389.858 14.500,390.005 14.301,390.003 14.253 C 389.989 13.892,390.021 13.826,390.167 13.917 C 390.258 13.973,390.333 13.900,390.333 13.755 C 390.333 13.609,390.446 13.446,390.583 13.394 C 390.721 13.341,390.833 13.193,390.833 13.066 C 390.833 12.938,390.906 12.833,390.995 12.833 C 391.084 12.833,391.111 12.716,391.056 12.573 C 390.956 12.312,391.606 11.706,391.887 11.797 C 391.963 11.822,391.979 11.768,391.923 11.678 C 391.814 11.501,392.078 10.953,392.532 10.417 C 392.686 10.233,392.818 10.027,392.823 9.958 C 392.829 9.890,392.890 9.829,392.958 9.823 C 393.081 9.814,393.366 9.242,393.409 8.917 C 393.422 8.825,393.541 8.775,393.674 8.806 C 393.808 8.836,393.862 8.807,393.796 8.741 C 393.664 8.608,394.162 7.667,394.364 7.667 C 394.433 7.667,394.446 7.553,394.393 7.415 C 394.321 7.228,394.372 7.192,394.592 7.276 C 394.795 7.354,394.850 7.329,394.768 7.195 C 394.701 7.088,394.726 7.000,394.823 7.000 C 394.921 7.000,395.000 6.920,395.000 6.822 C 395.000 6.724,395.179 6.406,395.397 6.114 C 395.616 5.822,395.845 5.417,395.907 5.213 C 395.969 5.009,396.213 4.690,396.449 4.504 C 396.685 4.319,396.793 4.167,396.689 4.167 C 396.585 4.167,396.500 4.079,396.500 3.972 C 396.500 3.865,396.546 3.824,396.603 3.881 C 396.747 4.024,397.116 3.626,397.200 3.238 C 397.239 3.061,397.356 2.935,397.462 2.956 C 397.568 2.978,397.614 2.890,397.564 2.761 C 397.515 2.631,397.613 2.451,397.784 2.360 C 398.100 2.190,398.275 0.936,398.071 0.294 C 397.964 -0.044,2.126 -0.172,1.917 0.166 " stroke="none" fill="#ffffff" fill-rule="evenodd"></path></g></svg>