<?xml version="1.0" standalone="no"?>
<!DOCTYPE svg PUBLIC "-//W3C//DTD SVG 20010904//EN"
 "http://www.w3.org/TR/2001/REC-SVG-20010904/DTD/svg10.dtd">
<svg version="1.0" xmlns="http://www.w3.org/2000/svg"
 width="377.000000pt" height="360.000000pt" viewBox="0 0 377.000000 360.000000"
 preserveAspectRatio="xMidYMid meet">
<g transform="translate(0.000000,360.000000) scale(0.100000,-0.100000)"
fill="#fe0000" stroke="none">
<path d="M469 3558 c-10 -4 -23 -18 -28 -30 -10 -24 -42 -183 -61 -308 -28
-184 -56 -290 -110 -425 -18 -44 -50 -134 -72 -200 -22 -66 -51 -154 -65 -195
-14 -41 -31 -112 -38 -158 -8 -45 -18 -106 -25 -134 -6 -29 -13 -79 -15 -112
-3 -34 -9 -110 -15 -171 -19 -219 11 -537 74 -790 30 -124 115 -385 141 -435
7 -14 30 -61 50 -105 21 -44 43 -92 50 -106 11 -25 10 -27 -21 -38 -47 -17
-102 -77 -108 -120 -8 -50 18 -138 50 -172 l28 -29 1575 0 c1223 1 1580 3
1592 13 28 22 47 61 58 120 9 47 8 65 -5 97 -15 36 -75 90 -101 90 -26 0 -22
24 16 102 63 133 114 263 162 418 12 36 25 73 30 82 5 9 11 36 14 60 4 24 12
70 20 103 37 160 45 211 56 350 6 83 12 168 12 190 0 81 -24 387 -32 408 -5
12 -12 49 -16 82 -10 82 -30 177 -43 201 -6 10 -27 78 -48 149 -20 72 -59 184
-85 250 -27 66 -49 126 -49 133 0 6 -3 12 -7 12 -22 0 -66 202 -78 355 -2 17
-10 68 -19 115 -8 47 -18 102 -21 122 -3 20 -14 47 -24 59 -16 20 -27 22 -107
23 -74 1 -103 -4 -171 -28 -56 -20 -84 -35 -90 -50 -9 -19 -4 -64 22 -203 l6
-33 -146 0 -145 0 -2 28 c-1 15 -2 65 -3 112 -1 47 -5 101 -9 122 -6 36 -7 36
-64 43 -97 11 -385 9 -407 -2 -11 -6 -33 -25 -50 -43 -29 -30 -30 -32 -30
-143 l0 -112 -235 0 -235 0 2 30 c1 17 3 65 4 109 l3 78 -46 44 c-45 43 -49
44 -115 45 -122 3 -247 0 -320 -6 -62 -6 -72 -9 -77 -28 -5 -22 -19 -189 -18
-217 0 -8 -1 -25 -4 -37 -4 -23 -7 -23 -140 -23 l-135 0 6 58 c4 31 11 77 15
101 9 50 -3 97 -28 104 -9 3 -44 15 -77 28 -61 23 -203 32 -246 17z m2230
-1378 c53 -10 161 -59 186 -84 8 -8 25 -23 37 -33 55 -44 142 -186 141 -231 0
-9 3 -22 8 -28 11 -13 15 -166 7 -219 -11 -70 -53 -172 -88 -219 -39 -51 -94
-106 -106 -106 -8 0 -14 -3 -14 -7 0 -5 -23 -21 -50 -36 -28 -16 -50 -26 -50
-23 0 3 -17 -2 -37 -11 -43 -18 -215 -22 -236 -5 -6 5 -25 12 -41 16 -39 9
-128 68 -171 111 -142 147 -185 387 -105 580 4 11 11 27 14 35 14 36 80 125
116 156 13 12 40 30 60 40 19 11 37 22 40 25 3 3 30 15 60 27 61 23 147 28
229 12z"/>
</g>
</svg>
