<svg id="svg" version="1.1" width="400" height="102.8169014084507" viewBox="0 0 400 102.8169014084507" xmlns="http://www.w3.org/2000/svg" xmlns:xlink="http://www.w3.org/1999/xlink"><g id="svgg"><path id="path0" d="M41.097 0.144 C 41.048 0.223,39.994 0.279,38.754 0.268 C 37.340 0.255,36.499 0.310,36.497 0.416 C 36.496 0.527,36.454 0.528,36.372 0.416 C 36.167 0.136,29.333 0.196,29.333 0.478 C 29.333 0.622,29.213 0.674,29.006 0.620 C 28.826 0.573,28.596 0.635,28.494 0.757 C 28.392 0.880,28.183 0.935,28.029 0.880 C 27.876 0.825,27.805 0.841,27.872 0.915 C 27.996 1.052,27.399 1.667,27.141 1.667 C 27.064 1.667,27.000 1.817,27.000 2.000 C 27.000 2.183,26.921 2.333,26.823 2.333 C 26.726 2.333,26.690 2.403,26.743 2.488 C 26.796 2.574,26.763 2.691,26.669 2.748 C 26.576 2.806,26.500 3.069,26.500 3.333 C 26.500 3.598,26.422 3.862,26.327 3.921 C 26.231 3.980,26.200 4.175,26.257 4.355 C 26.314 4.535,26.279 4.782,26.178 4.903 C 26.078 5.024,25.978 5.433,25.956 5.812 C 25.932 6.229,25.845 6.474,25.734 6.433 C 25.611 6.386,25.578 6.636,25.633 7.206 C 25.696 7.865,25.667 8.020,25.499 7.916 C 25.331 7.812,25.303 7.953,25.372 8.558 C 25.438 9.145,25.404 9.333,25.231 9.333 C 25.065 9.333,25.019 9.531,25.061 10.075 C 25.098 10.554,25.053 10.805,24.934 10.784 C 24.817 10.762,24.767 11.010,24.797 11.462 C 24.830 11.960,24.772 12.201,24.604 12.265 C 24.418 12.337,24.398 12.477,24.515 12.886 C 24.701 13.535,24.701 13.541,24.517 13.427 C 24.317 13.304,24.205 13.641,24.243 14.250 C 24.260 14.525,24.218 14.788,24.150 14.835 C 24.081 14.882,24.001 15.145,23.971 15.419 C 23.941 15.693,23.851 15.964,23.771 16.023 C 23.691 16.081,23.626 16.344,23.627 16.606 C 23.628 16.869,23.582 17.158,23.525 17.250 C 23.468 17.342,23.412 17.642,23.401 17.917 C 23.365 18.852,23.333 19.020,23.208 18.942 C 23.139 18.899,23.076 19.109,23.069 19.407 C 23.061 19.706,22.997 20.092,22.925 20.267 C 22.854 20.441,22.773 20.808,22.745 21.083 C 22.619 22.326,22.514 22.865,22.363 23.050 C 22.274 23.160,22.225 23.471,22.256 23.740 C 22.286 24.010,22.204 24.487,22.073 24.800 C 21.943 25.113,21.877 25.436,21.928 25.518 C 21.978 25.600,21.948 25.667,21.860 25.667 C 21.772 25.667,21.712 25.960,21.725 26.320 C 21.739 26.679,21.675 26.960,21.583 26.945 C 21.487 26.928,21.439 27.217,21.470 27.625 C 21.510 28.168,21.464 28.333,21.272 28.333 C 21.081 28.333,21.042 28.465,21.111 28.888 C 21.173 29.273,21.118 29.525,20.928 29.715 C 20.778 29.865,20.662 30.027,20.671 30.074 C 20.681 30.122,20.752 30.381,20.829 30.652 C 20.930 31.005,20.909 31.166,20.754 31.225 C 20.628 31.274,20.557 31.520,20.582 31.823 C 20.607 32.107,20.560 32.379,20.480 32.429 C 20.399 32.479,20.333 32.763,20.333 33.060 C 20.333 33.357,20.240 33.701,20.125 33.824 C 19.956 34.007,19.963 34.023,20.167 33.909 C 20.374 33.793,20.381 33.813,20.210 34.025 C 20.096 34.166,20.050 34.328,20.109 34.386 C 20.167 34.444,20.127 34.597,20.021 34.725 C 19.915 34.853,19.874 35.080,19.932 35.229 C 19.990 35.380,19.953 35.500,19.848 35.500 C 19.740 35.500,19.691 35.673,19.734 35.907 C 19.775 36.131,19.726 36.341,19.626 36.375 C 19.461 36.430,19.363 36.941,19.280 38.192 C 19.263 38.436,19.194 38.600,19.125 38.558 C 19.056 38.515,19.000 38.560,19.000 38.657 C 19.000 38.754,19.084 38.833,19.187 38.833 C 19.309 38.833,19.294 38.930,19.145 39.110 C 19.020 39.261,18.907 39.543,18.896 39.735 C 18.885 39.926,18.866 40.257,18.854 40.468 C 18.843 40.680,18.776 40.818,18.706 40.774 C 18.636 40.731,18.593 40.970,18.611 41.306 C 18.628 41.642,18.535 42.083,18.404 42.286 C 18.136 42.703,18.098 42.896,18.309 42.765 C 18.388 42.716,18.416 42.862,18.373 43.088 C 18.330 43.315,18.223 43.500,18.136 43.500 C 18.049 43.500,18.028 43.659,18.090 43.854 C 18.160 44.076,18.139 44.169,18.033 44.104 C 17.932 44.041,17.899 44.132,17.952 44.333 C 18.000 44.517,17.969 44.667,17.884 44.667 C 17.799 44.667,17.754 45.004,17.785 45.417 C 17.825 45.943,17.778 46.167,17.629 46.167 C 17.507 46.167,17.403 46.398,17.384 46.708 C 17.352 47.218,17.236 47.981,17.161 48.167 C 17.142 48.212,17.139 48.314,17.153 48.393 C 17.167 48.471,17.108 48.621,17.021 48.726 C 16.934 48.831,16.875 49.235,16.890 49.623 C 16.905 50.012,16.835 50.361,16.735 50.399 C 16.631 50.439,16.587 50.702,16.633 51.012 C 16.691 51.409,16.631 51.614,16.408 51.777 C 16.240 51.900,16.177 52.000,16.268 52.000 C 16.359 52.000,16.402 52.262,16.365 52.583 C 16.328 52.904,16.220 53.167,16.127 53.167 C 16.025 53.167,15.995 53.402,16.051 53.750 C 16.123 54.192,16.087 54.333,15.904 54.333 C 15.720 54.333,15.682 54.490,15.747 55.000 C 15.808 55.492,15.771 55.667,15.604 55.667 C 15.372 55.667,15.375 56.496,15.607 56.872 C 15.673 56.979,15.640 57.003,15.526 56.933 C 15.420 56.867,15.333 56.898,15.333 57.000 C 15.333 57.105,15.242 57.132,15.125 57.061 C 14.979 56.974,14.984 57.020,15.142 57.214 C 15.332 57.448,15.324 57.629,15.088 58.377 C 14.935 58.864,14.824 59.335,14.841 59.423 C 14.927 59.858,14.825 60.245,14.684 60.022 C 14.593 59.879,14.552 60.109,14.573 60.638 C 14.591 61.108,14.539 61.441,14.455 61.389 C 14.372 61.338,14.327 61.510,14.354 61.773 C 14.382 62.035,14.349 62.340,14.281 62.450 C 14.213 62.560,14.147 62.913,14.135 63.235 C 14.122 63.577,14.044 63.777,13.947 63.717 C 13.847 63.655,13.818 63.757,13.875 63.974 C 13.931 64.188,13.891 64.334,13.776 64.336 C 13.667 64.337,13.689 64.405,13.829 64.494 C 14.040 64.627,14.036 64.663,13.800 64.754 C 13.592 64.834,13.541 65.019,13.590 65.511 C 13.635 65.960,13.592 66.150,13.452 66.123 C 13.341 66.101,13.226 66.291,13.197 66.544 C 13.168 66.798,13.081 66.967,13.004 66.919 C 12.927 66.872,12.904 66.983,12.952 67.167 C 13.000 67.351,12.953 67.606,12.848 67.733 C 12.742 67.860,12.640 68.197,12.620 68.481 C 12.600 68.766,12.522 68.999,12.447 69.000 C 12.372 69.000,12.356 69.141,12.410 69.314 C 12.474 69.515,12.415 69.664,12.244 69.729 C 12.098 69.785,12.028 69.910,12.087 70.006 C 12.147 70.102,12.116 70.277,12.019 70.393 C 11.923 70.510,11.825 70.844,11.803 71.136 C 11.781 71.428,11.699 71.667,11.621 71.667 C 11.544 71.667,11.529 71.745,11.588 71.841 C 11.647 71.936,11.598 72.131,11.480 72.274 C 11.362 72.417,11.248 72.650,11.227 72.792 C 11.206 72.934,11.099 73.106,10.988 73.174 C 10.876 73.243,10.824 73.488,10.870 73.727 C 10.915 73.963,10.888 74.117,10.809 74.068 C 10.731 74.020,10.667 74.097,10.667 74.240 C 10.667 74.383,10.583 74.500,10.481 74.500 C 10.378 74.500,10.332 74.644,10.378 74.821 C 10.436 75.042,10.393 75.115,10.238 75.056 C 10.006 74.966,10.023 75.451,10.267 75.876 C 10.333 75.990,10.325 76.028,10.250 75.960 C 10.002 75.735,9.637 76.181,9.855 76.443 C 10.007 76.626,9.993 76.654,9.786 76.574 C 9.601 76.503,9.540 76.562,9.575 76.779 C 9.629 77.117,9.382 77.686,9.101 77.868 C 9.001 77.933,8.942 78.207,8.970 78.477 C 8.999 78.746,8.941 79.017,8.841 79.078 C 8.742 79.140,8.704 79.260,8.757 79.345 C 8.810 79.430,8.727 79.500,8.574 79.500 C 8.365 79.500,8.315 79.606,8.375 79.921 C 8.428 80.197,8.363 80.396,8.186 80.499 C 8.015 80.599,7.994 80.658,8.129 80.662 C 8.294 80.666,8.286 80.775,8.094 81.146 C 7.958 81.409,7.894 81.671,7.951 81.729 C 8.009 81.786,7.926 81.833,7.767 81.833 C 7.547 81.833,7.505 81.919,7.591 82.192 C 7.679 82.469,7.648 82.529,7.452 82.453 C 7.280 82.387,7.214 82.446,7.245 82.637 C 7.270 82.791,7.219 83.007,7.131 83.118 C 7.043 83.228,7.011 83.383,7.059 83.461 C 7.107 83.539,6.970 83.913,6.755 84.292 C 6.539 84.672,6.432 85.005,6.516 85.033 C 6.600 85.061,6.482 85.286,6.253 85.533 C 5.984 85.823,5.876 86.083,5.947 86.268 C 6.021 86.463,5.994 86.516,5.862 86.434 C 5.745 86.362,5.667 86.418,5.667 86.573 C 5.667 86.716,5.592 86.833,5.500 86.833 C 5.408 86.833,5.333 86.946,5.333 87.083 C 5.333 87.221,5.261 87.333,5.172 87.333 C 5.083 87.333,5.048 87.432,5.095 87.553 C 5.202 87.832,4.759 88.702,4.592 88.539 C 4.524 88.472,4.493 88.604,4.525 88.833 C 4.560 89.082,4.506 89.236,4.392 89.214 C 4.287 89.194,4.152 89.440,4.092 89.760 C 4.032 90.081,3.912 90.299,3.825 90.245 C 3.738 90.191,3.667 90.258,3.667 90.393 C 3.667 90.528,3.610 90.664,3.542 90.694 C 3.357 90.776,2.833 91.821,2.833 92.107 C 2.833 92.242,2.758 92.307,2.667 92.250 C 2.575 92.193,2.500 92.208,2.499 92.282 C 2.499 92.356,2.334 92.679,2.132 93.000 C 1.931 93.321,1.759 93.658,1.750 93.750 C 1.742 93.842,1.651 93.900,1.550 93.880 C 1.448 93.860,1.385 93.973,1.410 94.130 C 1.436 94.288,1.311 94.556,1.134 94.725 C 0.956 94.895,0.851 95.139,0.900 95.267 C 0.949 95.395,0.902 95.500,0.795 95.500 C 0.651 95.500,0.649 95.549,0.787 95.687 C 0.956 95.856,0.651 96.849,0.333 97.167 C 0.287 97.212,0.241 98.469,0.230 99.958 L 0.209 102.667 200.000 102.667 L 399.791 102.667 399.770 99.958 C 399.759 98.469,399.712 97.212,399.667 97.167 C 399.349 96.849,399.044 95.856,399.213 95.687 C 399.351 95.549,399.349 95.500,399.205 95.500 C 399.092 95.500,399.055 95.384,399.117 95.223 C 399.184 95.047,399.157 94.986,399.044 95.056 C 398.929 95.127,398.897 95.044,398.954 94.826 C 399.014 94.594,398.970 94.501,398.813 94.535 C 398.681 94.563,398.593 94.459,398.606 94.292 C 398.619 94.131,398.563 94.000,398.481 94.000 C 398.400 94.000,398.333 93.891,398.333 93.758 C 398.333 93.625,398.235 93.457,398.115 93.383 C 397.995 93.310,397.799 93.007,397.679 92.710 C 397.559 92.414,397.395 92.212,397.314 92.262 C 397.233 92.312,397.167 92.242,397.167 92.107 C 397.167 91.821,396.643 90.776,396.458 90.694 C 396.390 90.664,396.333 90.542,396.333 90.423 C 396.333 90.305,396.221 90.114,396.083 90.000 C 395.946 89.886,395.833 89.639,395.833 89.452 C 395.833 89.264,395.785 89.160,395.726 89.219 C 395.564 89.380,394.837 87.850,394.944 87.573 C 394.994 87.441,394.953 87.333,394.851 87.333 C 394.750 87.333,394.667 87.221,394.667 87.083 C 394.667 86.946,394.592 86.833,394.500 86.833 C 394.408 86.833,394.333 86.716,394.333 86.573 C 394.333 86.418,394.255 86.362,394.138 86.434 C 394.006 86.516,393.979 86.463,394.053 86.268 C 394.125 86.081,394.020 85.838,393.748 85.567 C 393.319 85.137,393.200 84.898,393.511 85.090 C 393.609 85.151,393.500 84.827,393.269 84.370 C 393.038 83.914,392.893 83.496,392.948 83.441 C 393.003 83.386,392.971 83.246,392.878 83.129 C 392.786 83.012,392.730 82.791,392.755 82.637 C 392.786 82.446,392.720 82.387,392.548 82.453 C 392.352 82.529,392.321 82.469,392.409 82.192 C 392.495 81.919,392.453 81.833,392.233 81.833 C 392.074 81.833,391.991 81.786,392.049 81.729 C 392.106 81.671,392.042 81.409,391.906 81.146 C 391.714 80.775,391.706 80.666,391.871 80.662 C 392.006 80.658,391.985 80.599,391.814 80.499 C 391.635 80.395,391.572 80.198,391.626 79.914 C 391.685 79.610,391.642 79.500,391.479 79.535 C 391.337 79.565,391.270 79.467,391.303 79.275 C 391.332 79.105,391.283 79.011,391.194 79.066 C 391.102 79.123,391.033 78.908,391.033 78.561 C 391.033 78.229,390.962 77.910,390.875 77.853 C 390.615 77.684,390.373 77.105,390.425 76.779 C 390.460 76.562,390.399 76.503,390.214 76.574 C 390.007 76.654,389.993 76.626,390.145 76.443 C 390.363 76.181,389.998 75.735,389.750 75.960 C 389.675 76.028,389.667 75.990,389.733 75.876 C 389.977 75.451,389.994 74.966,389.762 75.056 C 389.603 75.117,389.564 75.040,389.629 74.793 C 389.702 74.515,389.662 74.466,389.435 74.553 C 389.277 74.614,389.192 74.594,389.244 74.510 C 389.296 74.425,389.273 74.315,389.192 74.265 C 389.111 74.216,389.082 73.977,389.129 73.736 C 389.176 73.488,389.125 73.244,389.012 73.174 C 388.901 73.106,388.794 72.934,388.773 72.792 C 388.752 72.650,388.638 72.417,388.520 72.274 C 388.402 72.131,388.360 71.925,388.428 71.815 C 388.506 71.689,388.481 71.659,388.359 71.734 C 388.226 71.816,388.167 71.648,388.167 71.186 C 388.167 70.820,388.087 70.470,387.989 70.410 C 387.891 70.349,387.852 70.192,387.902 70.060 C 387.953 69.928,387.881 69.777,387.742 69.724 C 387.584 69.663,387.527 69.511,387.590 69.314 C 387.644 69.141,387.628 69.000,387.553 69.000 C 387.478 68.999,387.400 68.766,387.380 68.481 C 387.360 68.197,387.258 67.860,387.152 67.733 C 387.047 67.606,387.000 67.351,387.048 67.167 C 387.096 66.983,387.068 66.875,386.984 66.926 C 386.901 66.978,386.833 66.874,386.833 66.696 C 386.833 66.517,386.721 66.157,386.584 65.894 C 386.447 65.631,386.335 65.300,386.334 65.158 C 386.334 65.016,386.243 64.810,386.133 64.700 C 385.978 64.544,385.982 64.500,386.153 64.500 C 386.328 64.500,386.324 64.425,386.134 64.125 C 386.003 63.919,385.879 63.450,385.857 63.083 C 385.836 62.717,385.760 62.396,385.689 62.371 C 385.617 62.346,385.592 62.102,385.632 61.829 C 385.678 61.516,385.631 61.333,385.506 61.333 C 385.393 61.333,385.324 61.138,385.344 60.875 C 385.364 60.623,385.305 60.229,385.212 60.000 C 385.120 59.771,385.076 59.499,385.115 59.395 C 385.155 59.292,385.061 58.823,384.907 58.353 C 384.669 57.626,384.662 57.456,384.855 57.217 C 385.011 57.025,385.018 56.976,384.875 57.061 C 384.758 57.132,384.667 57.105,384.667 57.000 C 384.667 56.898,384.580 56.867,384.474 56.933 C 384.360 57.003,384.327 56.979,384.393 56.872 C 384.625 56.496,384.628 55.667,384.396 55.667 C 384.229 55.667,384.192 55.492,384.253 55.000 C 384.318 54.490,384.280 54.333,384.096 54.333 C 383.913 54.333,383.877 54.192,383.949 53.750 C 384.013 53.353,383.979 53.167,383.842 53.167 C 383.710 53.167,383.658 52.935,383.690 52.490 C 383.717 52.119,383.661 51.762,383.566 51.699 C 383.297 51.519,383.183 51.077,383.340 50.823 C 383.427 50.683,383.408 50.546,383.292 50.474 C 383.187 50.410,383.110 50.014,383.120 49.595 C 383.130 49.176,383.065 48.833,382.975 48.833 C 382.886 48.833,382.834 48.702,382.860 48.542 C 382.887 48.381,382.853 48.161,382.785 48.053 C 382.717 47.945,382.738 47.809,382.832 47.751 C 382.940 47.684,382.912 47.555,382.755 47.398 C 382.614 47.257,382.533 46.941,382.566 46.659 C 382.605 46.322,382.550 46.167,382.391 46.167 C 382.218 46.167,382.173 45.974,382.215 45.417 C 382.246 45.004,382.201 44.667,382.116 44.667 C 382.031 44.667,382.000 44.517,382.048 44.333 C 382.101 44.132,382.068 44.041,381.967 44.104 C 381.861 44.169,381.840 44.076,381.910 43.854 C 381.972 43.659,381.951 43.500,381.864 43.500 C 381.777 43.500,381.670 43.315,381.627 43.088 C 381.584 42.862,381.612 42.716,381.691 42.765 C 381.902 42.896,381.864 42.703,381.596 42.286 C 381.465 42.083,381.372 41.645,381.389 41.312 C 381.407 40.962,381.350 40.734,381.252 40.771 C 381.156 40.808,381.071 40.509,381.056 40.077 C 381.041 39.660,380.938 39.209,380.827 39.076 C 380.685 38.905,380.681 38.833,380.813 38.833 C 380.916 38.833,381.000 38.754,381.000 38.657 C 381.000 38.560,380.944 38.515,380.875 38.558 C 380.806 38.600,380.737 38.436,380.720 38.192 C 380.637 36.941,380.539 36.430,380.374 36.375 C 380.274 36.341,380.225 36.131,380.266 35.907 C 380.309 35.673,380.260 35.500,380.152 35.500 C 380.047 35.500,380.010 35.380,380.068 35.229 C 380.126 35.080,380.085 34.853,379.979 34.725 C 379.873 34.597,379.833 34.444,379.891 34.386 C 379.950 34.328,379.904 34.166,379.790 34.025 C 379.619 33.813,379.626 33.793,379.833 33.909 C 380.037 34.023,380.044 34.007,379.875 33.824 C 379.760 33.701,379.667 33.357,379.667 33.060 C 379.667 32.763,379.601 32.479,379.520 32.429 C 379.440 32.379,379.393 32.107,379.418 31.823 C 379.444 31.506,379.373 31.274,379.232 31.220 C 379.083 31.163,379.052 31.045,379.142 30.883 C 379.298 30.605,379.196 29.833,379.004 29.833 C 378.935 29.833,378.828 29.268,378.766 28.577 C 378.645 27.250,378.534 26.793,378.358 26.902 C 378.298 26.938,378.261 26.676,378.275 26.318 C 378.288 25.960,378.228 25.667,378.140 25.667 C 378.052 25.667,378.022 25.600,378.072 25.518 C 378.123 25.436,378.057 25.113,377.927 24.800 C 377.796 24.487,377.714 24.010,377.744 23.740 C 377.775 23.471,377.726 23.160,377.637 23.050 C 377.482 22.861,377.359 22.212,377.262 21.067 C 377.237 20.783,377.163 20.463,377.097 20.356 C 377.031 20.248,376.958 19.868,376.936 19.510 C 376.913 19.152,376.815 18.759,376.716 18.638 C 376.618 18.516,376.558 18.173,376.583 17.875 C 376.608 17.577,376.562 17.333,376.481 17.333 C 376.400 17.333,376.333 17.046,376.333 16.694 C 376.333 16.343,376.277 15.999,376.208 15.931 C 376.140 15.862,376.074 15.662,376.063 15.486 C 376.023 14.880,376.000 14.814,375.856 14.903 C 375.777 14.952,375.725 14.616,375.741 14.157 C 375.762 13.529,375.715 13.343,375.551 13.406 C 375.292 13.505,375.297 13.542,375.485 12.886 C 375.602 12.477,375.582 12.337,375.396 12.265 C 375.228 12.201,375.170 11.960,375.203 11.462 C 375.233 11.010,375.183 10.762,375.066 10.784 C 374.947 10.805,374.902 10.554,374.939 10.075 C 374.981 9.531,374.935 9.333,374.769 9.333 C 374.596 9.333,374.562 9.145,374.628 8.558 C 374.697 7.953,374.669 7.812,374.501 7.916 C 374.333 8.020,374.304 7.865,374.367 7.206 C 374.435 6.503,374.406 6.380,374.197 6.460 C 374.035 6.522,373.988 6.488,374.064 6.365 C 374.129 6.260,374.064 5.825,373.920 5.400 C 373.775 4.975,373.702 4.485,373.756 4.313 C 373.814 4.131,373.776 4.000,373.665 4.000 C 373.553 4.000,373.497 3.793,373.528 3.493 C 373.559 3.193,373.488 2.929,373.353 2.845 C 373.227 2.768,373.175 2.621,373.238 2.519 C 373.301 2.417,373.274 2.333,373.177 2.333 C 373.079 2.333,373.000 2.183,373.000 2.000 C 373.000 1.817,372.936 1.667,372.859 1.667 C 372.601 1.667,372.004 1.052,372.128 0.915 C 372.195 0.841,372.116 0.828,371.952 0.887 C 371.766 0.954,371.619 0.902,371.560 0.748 C 371.496 0.583,371.335 0.535,371.066 0.603 C 370.791 0.671,370.667 0.632,370.667 0.476 C 370.667 0.196,363.832 0.137,363.628 0.416 C 363.546 0.528,363.504 0.527,363.503 0.416 C 363.501 0.310,362.660 0.255,361.246 0.268 C 360.006 0.279,358.950 0.221,358.900 0.140 C 358.768 -0.073,348.000 -0.028,348.000 0.186 C 348.000 0.280,347.851 0.308,347.667 0.250 C 347.483 0.192,347.333 0.216,347.333 0.303 C 347.333 0.390,347.176 0.502,346.983 0.553 C 346.783 0.605,346.682 0.723,346.747 0.828 C 346.822 0.950,346.716 0.985,346.433 0.934 C 346.198 0.891,345.965 0.922,345.916 1.001 C 345.867 1.081,345.674 1.117,345.488 1.081 C 345.298 1.044,345.110 1.121,345.058 1.257 C 344.996 1.417,344.832 1.464,344.568 1.398 C 344.290 1.328,344.139 1.379,344.067 1.566 C 344.011 1.713,343.827 1.833,343.659 1.833 C 343.491 1.833,343.306 1.910,343.248 2.003 C 343.191 2.096,343.079 2.132,343.000 2.083 C 342.921 2.035,342.809 2.071,342.752 2.164 C 342.694 2.257,342.501 2.333,342.323 2.333 C 342.146 2.333,342.000 2.418,342.000 2.520 C 342.000 2.650,341.923 2.643,341.750 2.500 C 341.564 2.345,341.500 2.343,341.500 2.489 C 341.500 2.598,341.425 2.640,341.333 2.583 C 341.242 2.527,341.167 2.555,341.167 2.646 C 341.167 2.737,340.984 2.778,340.761 2.738 C 340.537 2.697,340.301 2.751,340.235 2.858 C 340.155 2.986,340.188 3.006,340.333 2.917 C 340.478 2.827,340.511 2.847,340.432 2.975 C 340.365 3.083,340.106 3.131,339.841 3.085 C 339.507 3.026,339.338 3.080,339.266 3.268 C 339.208 3.420,339.057 3.494,338.915 3.439 C 338.779 3.387,338.667 3.416,338.667 3.505 C 338.667 3.594,338.442 3.667,338.167 3.667 C 337.892 3.667,337.667 3.742,337.667 3.833 C 337.667 3.925,337.535 4.001,337.375 4.003 C 337.124 4.005,337.118 4.029,337.333 4.176 C 337.520 4.304,337.415 4.337,336.917 4.307 C 336.478 4.280,336.264 4.333,336.290 4.462 C 336.319 4.604,336.214 4.613,335.906 4.496 C 335.672 4.407,335.522 4.401,335.572 4.482 C 335.622 4.563,335.559 4.716,335.431 4.821 C 335.255 4.968,335.183 4.966,335.132 4.813 C 335.083 4.666,335.001 4.679,334.833 4.860 C 334.705 4.996,334.429 5.075,334.217 5.035 C 334.002 4.993,333.833 5.043,333.833 5.147 C 333.833 5.250,333.777 5.316,333.708 5.294 C 333.516 5.233,332.500 5.690,332.500 5.838 C 332.500 5.910,332.350 5.929,332.166 5.881 C 331.982 5.833,331.738 5.868,331.624 5.957 C 331.453 6.092,330.663 6.343,330.333 6.367 C 330.287 6.370,330.110 6.471,329.939 6.590 C 329.768 6.710,329.525 6.768,329.398 6.720 C 329.271 6.671,329.167 6.714,329.167 6.816 C 329.167 6.917,329.050 7.000,328.907 7.000 C 328.764 7.000,328.688 7.067,328.739 7.149 C 328.828 7.292,328.374 7.578,328.135 7.530 C 328.072 7.517,327.973 7.655,327.916 7.837 C 327.858 8.018,327.733 8.167,327.638 8.167 C 327.542 8.167,327.507 8.277,327.558 8.411 C 327.610 8.546,327.579 8.701,327.490 8.756 C 327.401 8.811,327.368 8.922,327.417 9.001 C 327.467 9.081,327.382 9.216,327.229 9.302 C 327.048 9.403,326.983 9.582,327.043 9.812 C 327.094 10.007,327.070 10.207,326.991 10.256 C 326.910 10.306,326.915 10.527,327.003 10.758 C 327.089 10.985,327.133 11.396,327.101 11.672 C 327.069 11.948,327.120 12.221,327.214 12.279 C 327.320 12.345,327.334 12.296,327.251 12.151 C 327.151 11.976,327.168 11.963,327.317 12.100 C 327.471 12.241,327.469 12.385,327.309 12.737 C 327.183 13.014,327.164 13.235,327.259 13.304 C 327.509 13.483,327.580 13.853,327.543 14.792 C 327.520 15.388,327.574 15.667,327.713 15.667 C 327.842 15.667,327.913 15.919,327.907 16.360 C 327.901 16.741,328.006 17.386,328.140 17.793 C 328.279 18.216,328.319 18.579,328.233 18.641 C 328.020 18.796,328.023 19.487,328.238 19.449 C 328.341 19.430,328.409 19.678,328.398 20.037 C 328.388 20.379,328.428 20.628,328.487 20.591 C 328.547 20.554,328.610 20.650,328.627 20.804 C 328.645 20.958,328.694 21.383,328.736 21.750 C 328.779 22.117,328.852 22.754,328.898 23.167 C 328.945 23.579,328.997 23.917,329.013 23.917 C 329.092 23.917,329.202 24.850,329.225 25.708 C 329.243 26.391,329.315 26.667,329.476 26.667 C 329.642 26.667,329.683 26.855,329.631 27.375 C 329.592 27.765,329.644 28.308,329.747 28.583 C 329.850 28.858,329.918 29.345,329.897 29.665 C 329.876 29.985,329.918 30.323,329.989 30.415 C 330.229 30.727,330.309 31.333,330.109 31.336 C 330.001 31.337,330.026 31.410,330.167 31.503 C 330.389 31.648,330.389 31.685,330.167 31.831 C 329.947 31.975,329.949 31.995,330.180 31.997 C 330.355 31.999,330.430 32.127,330.403 32.375 C 330.380 32.581,330.355 32.920,330.347 33.128 C 330.335 33.452,330.270 33.490,329.892 33.396 C 329.554 33.311,329.482 33.336,329.584 33.501 C 329.681 33.658,329.653 33.678,329.484 33.573 C 329.160 33.373,324.664 33.361,324.788 33.561 C 324.846 33.655,324.792 33.661,324.653 33.575 C 324.284 33.347,323.148 33.334,323.283 33.559 C 323.366 33.697,323.331 33.702,323.157 33.576 C 322.863 33.363,317.189 33.360,316.849 33.572 C 316.697 33.667,316.653 33.657,316.723 33.543 C 316.853 33.333,315.695 33.360,315.347 33.575 C 315.208 33.661,315.154 33.655,315.212 33.561 C 315.336 33.361,310.840 33.373,310.516 33.573 C 310.356 33.672,310.319 33.657,310.401 33.526 C 310.551 33.282,310.248 33.278,309.801 33.517 C 309.544 33.655,309.426 33.650,309.333 33.499 C 309.236 33.342,309.181 33.342,309.083 33.500 C 308.991 33.650,308.928 33.653,308.840 33.511 C 308.756 33.375,308.595 33.369,308.278 33.489 C 308.033 33.582,307.833 33.598,307.833 33.525 C 307.833 33.370,305.284 33.408,305.027 33.566 C 304.933 33.625,304.812 33.601,304.758 33.513 C 304.649 33.337,304.000 33.340,304.000 33.517 C 304.000 33.687,303.435 33.607,303.292 33.417 C 303.212 33.311,303.113 33.332,303.021 33.476 C 302.917 33.636,302.841 33.648,302.759 33.515 C 302.696 33.412,302.555 33.383,302.447 33.451 C 302.148 33.638,301.833 33.655,301.833 33.485 C 301.833 33.402,301.716 33.333,301.573 33.333 C 301.420 33.333,301.362 33.412,301.433 33.526 C 301.513 33.655,301.477 33.672,301.325 33.578 C 300.978 33.364,300.196 33.318,300.080 33.505 C 300.023 33.597,299.888 33.617,299.780 33.550 C 299.672 33.483,299.096 33.423,298.500 33.417 C 297.421 33.407,297.417 33.405,297.465 32.951 C 297.494 32.677,297.420 32.459,297.281 32.405 C 297.106 32.338,297.078 32.152,297.168 31.658 C 297.234 31.296,297.232 31.000,297.162 31.000 C 297.092 31.000,297.095 30.735,297.168 30.412 C 297.258 30.013,297.235 29.759,297.097 29.620 C 296.966 29.488,296.898 28.880,296.906 27.891 C 296.912 27.052,296.860 26.400,296.792 26.442 C 296.658 26.525,296.623 26.180,296.599 24.536 C 296.588 23.806,296.507 23.435,296.333 23.315 C 296.145 23.184,296.135 23.120,296.292 23.057 C 296.406 23.010,296.500 22.862,296.500 22.726 C 296.500 22.591,296.440 22.517,296.367 22.563 C 296.293 22.608,296.233 22.462,296.233 22.239 C 296.233 22.016,296.298 21.833,296.377 21.833 C 296.455 21.833,296.464 21.744,296.397 21.635 C 296.330 21.526,296.291 21.113,296.312 20.718 C 296.332 20.323,296.278 20.000,296.191 20.000 C 296.104 20.000,296.040 19.383,296.048 18.618 C 296.056 17.858,295.994 17.127,295.911 16.993 C 295.828 16.859,295.738 16.075,295.712 15.250 C 295.625 12.527,295.585 12.085,295.417 11.961 C 295.316 11.887,295.341 11.837,295.479 11.836 C 295.656 11.834,295.664 11.781,295.513 11.600 C 295.364 11.420,295.369 11.347,295.535 11.287 C 295.707 11.224,295.708 11.164,295.542 10.988 C 295.293 10.724,295.264 10.437,295.500 10.583 C 295.592 10.640,295.667 10.615,295.667 10.528 C 295.667 10.440,295.562 10.329,295.433 10.279 C 295.253 10.210,295.211 9.881,295.253 8.843 C 295.288 7.947,295.238 7.427,295.104 7.290 C 294.978 7.161,294.906 6.581,294.911 5.750 C 294.917 4.997,294.830 4.235,294.713 4.000 C 294.598 3.771,294.570 3.561,294.651 3.534 C 294.846 3.468,294.674 2.833,294.461 2.833 C 294.369 2.833,294.331 2.693,294.376 2.522 C 294.421 2.350,294.374 2.220,294.270 2.230 C 294.167 2.241,294.083 2.188,294.083 2.113 C 294.083 2.038,293.951 1.902,293.788 1.811 C 293.626 1.721,293.544 1.564,293.606 1.464 C 293.676 1.351,293.641 1.330,293.512 1.409 C 293.388 1.486,293.214 1.404,293.074 1.204 C 292.670 0.627,285.691 0.222,285.010 0.735 C 284.857 0.850,284.807 0.853,284.873 0.743 C 284.944 0.625,283.681 0.567,280.905 0.560 C 278.582 0.555,276.833 0.616,276.833 0.702 C 276.833 0.785,276.765 0.811,276.681 0.759 C 276.597 0.707,276.490 0.759,276.444 0.874 C 276.398 0.989,276.353 0.933,276.344 0.750 C 276.331 0.468,276.301 0.455,276.151 0.667 C 276.018 0.855,275.954 0.865,275.890 0.708 C 275.775 0.424,275.317 0.446,274.873 0.758 C 274.531 0.997,274.513 0.994,274.617 0.716 C 274.714 0.456,274.693 0.446,274.455 0.639 C 274.305 0.762,274.103 0.814,274.007 0.755 C 273.912 0.695,273.832 0.745,273.831 0.865 C 273.829 1.015,273.790 1.025,273.706 0.899 C 273.638 0.797,273.433 0.739,273.250 0.770 C 272.903 0.829,269.146 0.886,269.000 0.835 C 268.698 0.729,268.138 0.744,268.066 0.861 C 268.019 0.938,267.846 0.929,267.682 0.842 C 267.480 0.734,267.320 0.746,267.185 0.881 C 267.031 1.036,266.951 1.025,266.829 0.832 C 266.742 0.695,266.671 0.667,266.669 0.769 C 266.667 0.895,266.452 0.916,266.002 0.834 C 265.636 0.767,265.055 0.747,264.710 0.790 C 263.598 0.927,263.254 0.927,263.055 0.786 C 262.944 0.707,262.715 0.738,262.527 0.855 C 262.289 1.004,262.130 1.013,261.972 0.886 C 261.850 0.789,261.600 0.742,261.417 0.781 C 260.706 0.934,260.246 0.935,260.144 0.783 C 260.083 0.692,259.940 0.685,259.810 0.766 C 259.481 0.971,259.182 0.993,259.074 0.818 C 259.018 0.728,258.852 0.734,258.667 0.833 C 258.457 0.945,258.319 0.945,258.250 0.834 C 258.193 0.742,258.072 0.667,257.980 0.667 C 257.889 0.667,257.855 0.734,257.906 0.817 C 257.957 0.899,257.737 0.967,257.417 0.967 C 257.096 0.967,256.872 0.906,256.918 0.831 C 256.988 0.719,256.652 0.723,256.333 0.838 C 256.287 0.855,255.762 0.856,255.167 0.841 C 254.571 0.826,254.008 0.813,253.917 0.812 C 253.825 0.811,253.393 0.845,252.956 0.886 C 252.520 0.928,252.121 0.894,252.070 0.812 C 252.019 0.729,251.899 0.709,251.804 0.768 C 251.581 0.906,249.401 0.895,249.174 0.754 C 249.078 0.695,249.000 0.726,249.000 0.823 C 249.000 0.921,248.887 1.000,248.750 1.000 C 248.612 1.000,248.500 0.941,248.500 0.869 C 248.500 0.713,247.716 0.728,247.557 0.888 C 247.495 0.949,247.326 0.995,247.181 0.988 C 246.983 0.979,247.000 0.937,247.250 0.819 C 247.507 0.698,247.468 0.687,247.083 0.771 C 246.551 0.887,245.994 0.883,244.917 0.757 C 244.412 0.697,244.351 0.712,244.667 0.817 C 244.975 0.920,244.810 0.954,244.034 0.951 C 243.422 0.947,243.075 0.888,243.201 0.809 C 243.494 0.623,243.280 0.632,242.767 0.827 C 242.490 0.932,242.309 0.929,242.241 0.819 C 242.172 0.707,242.070 0.706,241.938 0.816 C 241.814 0.919,241.647 0.923,241.494 0.826 C 241.360 0.741,241.175 0.672,241.083 0.672 C 240.992 0.672,241.029 0.744,241.167 0.833 C 241.380 0.971,241.374 0.995,241.125 0.997 C 240.965 0.999,240.833 0.927,240.833 0.837 C 240.833 0.736,240.687 0.731,240.444 0.823 C 240.231 0.904,239.963 0.913,239.849 0.843 C 239.578 0.676,238.492 0.799,238.216 1.028 C 238.097 1.127,238.000 1.155,238.000 1.092 C 238.000 1.028,237.888 1.089,237.750 1.226 C 237.613 1.364,237.500 1.569,237.500 1.683 C 237.500 1.796,237.453 1.842,237.397 1.785 C 237.340 1.728,236.998 1.997,236.637 2.383 C 236.276 2.768,235.863 3.059,235.718 3.029 C 235.534 2.991,235.486 3.057,235.559 3.246 C 235.616 3.395,235.593 3.474,235.508 3.422 C 235.342 3.319,233.968 4.579,234.102 4.713 C 234.146 4.757,233.991 4.841,233.758 4.900 C 233.525 4.958,232.931 5.398,232.438 5.878 C 231.497 6.794,231.218 7.039,230.492 7.583 C 230.248 7.767,230.030 7.992,230.007 8.083 C 229.985 8.175,229.899 8.231,229.817 8.208 C 229.734 8.185,229.667 8.271,229.667 8.398 C 229.667 8.525,229.412 8.749,229.101 8.897 C 228.791 9.044,228.491 9.283,228.436 9.426 C 228.380 9.573,228.251 9.635,228.142 9.568 C 228.025 9.496,227.993 9.521,228.062 9.633 C 228.125 9.734,228.024 9.898,227.838 9.998 C 227.652 10.097,227.500 10.288,227.500 10.423 C 227.500 10.557,227.410 10.667,227.300 10.667 C 227.151 10.667,227.148 10.715,227.289 10.856 C 227.430 10.997,227.415 11.142,227.228 11.426 C 227.083 11.648,227.008 12.039,227.048 12.362 C 227.086 12.667,227.055 13.040,226.979 13.191 C 226.888 13.370,226.925 13.535,227.085 13.668 C 227.220 13.780,227.289 13.938,227.238 14.019 C 227.188 14.100,227.229 14.167,227.329 14.167 C 227.459 14.167,227.457 14.268,227.323 14.520 C 227.190 14.769,227.188 14.840,227.317 14.760 C 227.540 14.622,227.550 14.910,227.348 15.615 C 227.224 16.046,227.240 16.128,227.434 16.054 C 227.630 15.979,227.660 16.165,227.605 17.101 C 227.538 18.249,227.605 18.724,227.816 18.594 C 227.879 18.555,227.927 19.062,227.923 19.720 C 227.918 20.628,227.970 20.906,228.137 20.871 C 228.279 20.842,228.310 20.902,228.225 21.038 C 227.939 21.496,228.217 23.998,228.555 24.003 C 228.693 24.004,228.697 24.041,228.567 24.128 C 228.359 24.266,228.375 25.330,228.590 25.678 C 228.668 25.804,228.753 26.509,228.778 27.245 C 228.832 28.819,228.854 29.000,228.994 29.000 C 229.052 29.000,229.100 29.183,229.100 29.406 C 229.100 29.629,229.040 29.775,228.967 29.729 C 228.893 29.684,228.833 29.766,228.833 29.912 C 228.833 30.058,228.938 30.217,229.066 30.266 C 229.211 30.322,229.293 30.587,229.284 30.970 C 229.276 31.307,229.311 31.862,229.361 32.202 C 229.417 32.581,229.381 32.851,229.268 32.897 C 229.166 32.939,229.208 32.980,229.359 32.987 C 229.555 32.996,229.609 33.101,229.545 33.347 C 229.495 33.539,229.408 33.632,229.352 33.556 C 229.197 33.345,228.100 33.351,227.961 33.563 C 227.892 33.668,227.837 33.677,227.835 33.583 C 227.834 33.485,227.185 33.411,226.257 33.403 C 225.390 33.395,224.716 33.445,224.758 33.513 C 224.854 33.668,224.490 33.620,224.201 33.439 C 224.079 33.363,223.880 33.392,223.743 33.506 C 223.572 33.648,223.500 33.652,223.500 33.520 C 223.500 33.418,223.421 33.333,223.323 33.333 C 223.226 33.333,223.201 33.420,223.266 33.526 C 223.348 33.659,223.312 33.672,223.151 33.568 C 222.882 33.395,216.833 33.359,216.833 33.530 C 216.833 33.592,216.612 33.580,216.342 33.503 C 216.007 33.407,215.826 33.423,215.772 33.556 C 215.729 33.663,215.687 33.675,215.680 33.583 C 215.665 33.394,211.829 33.380,211.524 33.569 C 211.419 33.633,211.333 33.626,211.333 33.552 C 211.333 33.382,209.818 33.376,209.556 33.544 C 209.449 33.613,209.324 33.575,209.277 33.459 C 209.212 33.297,209.190 33.299,209.180 33.468 C 209.173 33.589,209.081 33.633,208.974 33.567 C 208.641 33.362,208.000 33.354,207.997 33.556 C 207.996 33.682,207.952 33.690,207.872 33.580 C 207.723 33.373,204.667 33.356,204.667 33.562 C 204.667 33.642,204.563 33.622,204.437 33.517 C 204.276 33.383,204.077 33.376,203.770 33.492 C 203.530 33.584,203.333 33.599,203.333 33.526 C 203.333 33.453,203.108 33.394,202.833 33.394 C 202.558 33.394,202.333 33.460,202.333 33.540 C 202.333 33.621,202.243 33.630,202.132 33.562 C 201.829 33.374,200.334 33.392,200.331 33.583 C 200.329 33.675,200.254 33.637,200.164 33.500 C 200.018 33.278,199.982 33.278,199.836 33.500 C 199.746 33.637,199.671 33.675,199.669 33.583 C 199.666 33.392,198.171 33.374,197.868 33.562 C 197.757 33.630,197.667 33.621,197.667 33.540 C 197.667 33.460,197.442 33.394,197.167 33.394 C 196.892 33.394,196.667 33.453,196.667 33.526 C 196.667 33.599,196.470 33.584,196.230 33.492 C 195.923 33.376,195.724 33.383,195.563 33.517 C 195.437 33.622,195.333 33.642,195.333 33.562 C 195.333 33.385,191.328 33.367,191.056 33.543 C 190.949 33.612,190.824 33.575,190.777 33.459 C 190.712 33.297,190.690 33.299,190.680 33.468 C 190.672 33.602,190.586 33.635,190.458 33.553 C 190.186 33.378,188.667 33.377,188.667 33.552 C 188.667 33.626,188.581 33.633,188.476 33.569 C 188.173 33.381,184.343 33.395,184.263 33.583 C 184.225 33.675,184.187 33.661,184.180 33.553 C 184.171 33.415,184.019 33.399,183.667 33.500 C 183.392 33.579,183.167 33.592,183.167 33.530 C 183.167 33.359,177.118 33.395,176.849 33.568 C 176.688 33.672,176.652 33.659,176.734 33.526 C 176.799 33.420,176.774 33.333,176.677 33.333 C 176.579 33.333,176.500 33.418,176.500 33.520 C 176.500 33.652,176.428 33.648,176.257 33.506 C 176.120 33.392,175.921 33.363,175.799 33.439 C 175.506 33.623,175.147 33.667,175.245 33.508 C 175.364 33.315,172.270 33.390,172.128 33.583 C 172.052 33.687,172.004 33.671,172.003 33.543 C 172.000 33.351,170.973 33.396,170.637 33.603 C 170.400 33.747,170.314 33.307,170.527 33.044 C 170.717 32.810,170.713 32.788,170.500 32.897 C 170.362 32.967,170.386 32.914,170.552 32.778 C 170.747 32.619,170.790 32.493,170.674 32.421 C 170.575 32.360,170.543 32.233,170.601 32.137 C 170.660 32.042,170.702 31.632,170.693 31.225 C 170.683 30.723,170.756 30.455,170.920 30.392 C 171.083 30.330,171.115 30.211,171.020 30.025 C 170.853 29.698,170.949 28.303,171.148 28.174 C 171.224 28.124,171.274 27.596,171.259 27.000 C 171.244 26.404,171.305 25.818,171.396 25.697 C 171.486 25.576,171.572 25.163,171.587 24.780 C 171.602 24.397,171.667 23.746,171.732 23.333 C 171.908 22.219,171.925 21.277,171.775 21.038 C 171.690 20.901,171.721 20.842,171.863 20.871 C 172.030 20.906,172.082 20.628,172.077 19.720 C 172.073 19.062,172.121 18.555,172.184 18.594 C 172.395 18.724,172.462 18.249,172.395 17.101 C 172.337 16.119,172.364 15.976,172.589 16.063 C 172.733 16.118,172.817 16.107,172.775 16.040 C 172.584 15.729,172.506 14.651,172.683 14.760 C 172.813 14.840,172.811 14.770,172.677 14.520 C 172.543 14.268,172.541 14.167,172.671 14.167 C 172.771 14.167,172.812 14.100,172.762 14.019 C 172.711 13.938,172.780 13.780,172.915 13.668 C 173.075 13.535,173.112 13.370,173.021 13.191 C 172.945 13.040,172.914 12.667,172.952 12.362 C 172.992 12.039,172.917 11.648,172.772 11.426 C 172.585 11.142,172.570 10.997,172.711 10.856 C 172.852 10.715,172.829 10.667,172.622 10.667 C 172.450 10.667,172.379 10.576,172.435 10.429 C 172.487 10.293,172.377 10.112,172.175 10.004 C 171.982 9.901,171.869 9.744,171.924 9.654 C 171.980 9.565,171.963 9.506,171.887 9.522 C 171.635 9.579,171.167 9.300,171.261 9.149 C 171.312 9.067,171.263 9.000,171.154 9.000 C 171.044 9.000,170.796 8.829,170.602 8.620 C 170.409 8.411,170.194 8.223,170.125 8.203 C 170.056 8.183,169.986 8.110,169.970 8.042 C 169.924 7.853,169.223 7.333,169.015 7.333 C 168.915 7.333,168.833 7.221,168.833 7.083 C 168.833 6.946,168.750 6.833,168.647 6.833 C 168.545 6.833,168.170 6.533,167.814 6.166 C 167.458 5.800,167.167 5.552,167.167 5.616 C 167.167 5.679,166.998 5.508,166.792 5.234 C 166.541 4.902,166.306 4.759,166.083 4.803 C 165.900 4.840,165.801 4.816,165.864 4.751 C 166.019 4.591,164.687 3.301,164.492 3.422 C 164.405 3.475,164.386 3.391,164.447 3.231 C 164.520 3.041,164.493 2.985,164.367 3.062 C 164.258 3.130,163.864 2.862,163.441 2.432 C 163.036 2.021,162.658 1.731,162.602 1.787 C 162.546 1.843,162.500 1.796,162.500 1.683 C 162.500 1.374,162.112 1.046,161.850 1.133 C 161.711 1.180,161.666 1.136,161.737 1.022 C 161.810 0.903,161.710 0.828,161.468 0.819 C 161.257 0.812,160.917 0.787,160.714 0.764 C 160.511 0.742,160.255 0.779,160.145 0.847 C 160.035 0.915,159.769 0.904,159.556 0.823 C 159.313 0.731,159.167 0.736,159.167 0.837 C 159.167 0.927,159.035 0.999,158.875 0.997 C 158.626 0.995,158.620 0.971,158.833 0.833 C 158.971 0.744,159.008 0.672,158.917 0.672 C 158.825 0.672,158.640 0.741,158.506 0.826 C 158.353 0.923,158.186 0.919,158.062 0.816 C 157.930 0.706,157.828 0.707,157.759 0.819 C 157.691 0.929,157.510 0.932,157.233 0.827 C 156.720 0.632,156.506 0.623,156.799 0.809 C 156.925 0.888,156.578 0.947,155.966 0.951 C 155.190 0.954,155.025 0.920,155.333 0.817 C 155.649 0.712,155.588 0.697,155.083 0.757 C 154.006 0.883,153.449 0.887,152.917 0.771 C 152.532 0.687,152.493 0.698,152.750 0.819 C 153.000 0.937,153.017 0.979,152.819 0.988 C 152.674 0.995,152.507 0.952,152.448 0.892 C 152.280 0.724,151.327 0.688,151.429 0.853 C 151.479 0.934,151.403 1.000,151.260 1.000 C 151.117 1.000,151.000 0.921,151.000 0.823 C 151.000 0.726,150.922 0.695,150.826 0.754 C 150.599 0.895,148.419 0.906,148.196 0.768 C 148.101 0.709,147.981 0.729,147.930 0.812 C 147.879 0.894,147.480 0.928,147.044 0.886 C 146.607 0.845,146.175 0.811,146.083 0.812 C 145.992 0.813,145.429 0.826,144.833 0.841 C 144.237 0.856,143.712 0.855,143.667 0.838 C 143.348 0.723,143.012 0.719,143.082 0.831 C 143.128 0.906,142.904 0.967,142.583 0.967 C 142.263 0.967,142.043 0.899,142.094 0.817 C 142.145 0.734,142.069 0.667,141.927 0.667 C 141.784 0.667,141.667 0.744,141.667 0.839 C 141.667 0.958,141.566 0.958,141.343 0.839 C 141.153 0.737,140.982 0.728,140.926 0.818 C 140.818 0.993,140.519 0.971,140.190 0.766 C 140.060 0.685,139.917 0.692,139.856 0.783 C 139.755 0.933,139.316 0.934,138.583 0.785 C 138.400 0.748,138.125 0.795,137.972 0.890 C 137.772 1.015,137.620 1.002,137.430 0.845 C 137.266 0.708,137.088 0.682,136.958 0.775 C 136.844 0.857,136.563 0.905,136.333 0.883 C 135.002 0.752,133.880 0.747,133.625 0.870 C 133.425 0.967,133.333 0.944,133.331 0.798 C 133.329 0.647,133.282 0.657,133.171 0.832 C 133.049 1.025,132.969 1.036,132.815 0.881 C 132.680 0.746,132.520 0.734,132.318 0.842 C 132.154 0.929,131.981 0.938,131.934 0.861 C 131.862 0.744,131.302 0.729,131.000 0.835 C 130.810 0.902,126.940 0.829,126.868 0.757 C 126.825 0.714,126.662 0.747,126.506 0.830 C 126.319 0.930,126.067 0.900,125.761 0.742 C 125.350 0.528,125.309 0.530,125.397 0.759 C 125.486 0.990,125.459 0.990,125.127 0.758 C 124.683 0.446,124.225 0.424,124.110 0.708 C 124.046 0.865,123.982 0.855,123.849 0.667 C 123.699 0.456,123.671 0.469,123.667 0.750 C 123.662 1.025,123.634 1.040,123.504 0.833 C 123.370 0.622,122.694 0.582,119.183 0.573 C 116.552 0.567,115.056 0.623,115.119 0.724 C 115.181 0.824,115.130 0.828,114.984 0.734 C 114.745 0.580,108.334 0.515,108.333 0.667 C 108.333 0.713,108.096 0.767,107.807 0.787 C 107.474 0.810,107.099 1.010,106.787 1.329 C 106.516 1.606,106.223 1.833,106.137 1.833 C 106.051 1.833,106.027 1.908,106.083 2.000 C 106.174 2.146,105.970 2.235,105.642 2.192 C 105.583 2.184,105.573 2.325,105.620 2.506 C 105.667 2.686,105.631 2.833,105.539 2.833 C 105.326 2.833,105.154 3.468,105.349 3.534 C 105.430 3.561,105.402 3.771,105.287 4.000 C 105.170 4.235,105.083 4.997,105.089 5.750 C 105.094 6.576,105.022 7.161,104.898 7.288 C 104.767 7.422,104.713 7.946,104.744 8.788 C 104.792 10.108,104.727 10.557,104.510 10.423 C 104.443 10.382,104.395 10.682,104.403 11.090 C 104.410 11.499,104.492 11.834,104.583 11.836 C 104.694 11.838,104.694 11.879,104.583 11.961 C 104.383 12.108,104.317 12.667,104.499 12.667 C 104.570 12.667,104.619 12.886,104.608 13.154 C 104.597 13.421,104.517 13.628,104.430 13.612 C 104.341 13.596,104.258 14.300,104.241 15.227 C 104.224 16.131,104.144 16.918,104.063 16.977 C 103.983 17.035,103.917 17.721,103.917 18.500 C 103.917 19.426,103.854 19.905,103.736 19.884 C 103.616 19.863,103.592 20.094,103.666 20.580 C 103.727 20.981,103.711 21.427,103.630 21.571 C 103.545 21.722,103.546 21.833,103.631 21.833 C 103.712 21.833,103.778 21.946,103.778 22.083 C 103.778 22.221,103.697 22.334,103.597 22.336 C 103.480 22.338,103.475 22.381,103.583 22.461 C 103.824 22.638,103.843 23.224,103.613 23.366 C 103.499 23.437,103.410 23.927,103.401 24.536 C 103.377 26.180,103.342 26.525,103.208 26.442 C 103.140 26.400,103.088 27.052,103.094 27.891 C 103.102 28.880,103.034 29.488,102.903 29.620 C 102.765 29.759,102.742 30.013,102.832 30.412 C 102.905 30.735,102.908 31.000,102.838 31.000 C 102.768 31.000,102.766 31.296,102.832 31.658 C 102.922 32.152,102.894 32.338,102.719 32.405 C 102.579 32.459,102.506 32.678,102.535 32.956 C 102.575 33.342,102.522 33.413,102.208 33.397 C 102.002 33.386,101.833 33.451,101.833 33.542 C 101.833 33.648,101.759 33.646,101.625 33.536 C 101.405 33.354,100.514 33.369,100.206 33.559 C 100.105 33.621,99.977 33.597,99.920 33.505 C 99.804 33.318,99.022 33.364,98.675 33.578 C 98.523 33.672,98.487 33.655,98.567 33.526 C 98.638 33.412,98.580 33.333,98.427 33.333 C 98.284 33.333,98.167 33.402,98.167 33.485 C 98.167 33.655,97.852 33.638,97.553 33.451 C 97.445 33.383,97.304 33.412,97.241 33.515 C 97.159 33.648,97.083 33.636,96.979 33.476 C 96.887 33.332,96.788 33.311,96.708 33.417 C 96.565 33.607,96.000 33.687,96.000 33.517 C 96.000 33.340,95.351 33.337,95.242 33.513 C 95.188 33.601,95.059 33.620,94.955 33.556 C 94.674 33.382,90.767 33.379,90.646 33.552 C 90.587 33.637,90.395 33.622,90.199 33.517 C 89.752 33.278,89.449 33.282,89.599 33.526 C 89.681 33.657,89.644 33.672,89.484 33.573 C 89.160 33.373,84.664 33.361,84.788 33.561 C 84.846 33.655,84.792 33.661,84.653 33.575 C 84.284 33.347,83.148 33.334,83.283 33.559 C 83.366 33.697,83.331 33.702,83.157 33.576 C 82.863 33.363,77.189 33.360,76.849 33.572 C 76.697 33.667,76.653 33.657,76.723 33.543 C 76.853 33.333,75.695 33.360,75.347 33.575 C 75.208 33.661,75.154 33.655,75.212 33.561 C 75.336 33.361,70.840 33.373,70.516 33.573 C 70.347 33.678,70.319 33.658,70.416 33.501 C 70.518 33.336,70.446 33.311,70.108 33.396 C 69.730 33.490,69.665 33.452,69.653 33.128 C 69.645 32.920,69.620 32.581,69.597 32.375 C 69.570 32.127,69.645 31.999,69.820 31.997 C 70.051 31.995,70.053 31.975,69.833 31.831 C 69.611 31.685,69.611 31.648,69.833 31.503 C 69.974 31.410,69.999 31.337,69.891 31.336 C 69.691 31.333,69.771 30.727,70.011 30.415 C 70.082 30.323,70.124 29.985,70.103 29.665 C 70.082 29.345,70.151 28.858,70.255 28.583 C 70.360 28.308,70.411 27.793,70.369 27.439 C 70.318 27.015,70.367 26.749,70.512 26.659 C 70.647 26.576,70.741 26.163,70.754 25.596 C 70.766 25.086,70.821 24.623,70.876 24.568 C 70.932 24.513,70.932 24.350,70.877 24.206 C 70.822 24.063,70.846 23.988,70.930 24.040 C 71.014 24.092,71.092 23.936,71.102 23.692 C 71.157 22.386,71.278 21.390,71.408 21.180 C 71.488 21.050,71.561 20.600,71.569 20.180 C 71.577 19.735,71.658 19.430,71.762 19.449 C 71.977 19.487,71.980 18.796,71.767 18.641 C 71.681 18.579,71.721 18.216,71.860 17.793 C 71.994 17.386,72.099 16.741,72.093 16.360 C 72.087 15.949,72.160 15.667,72.272 15.667 C 72.390 15.667,72.453 15.343,72.441 14.792 C 72.421 13.847,72.494 13.481,72.741 13.304 C 72.836 13.235,72.817 13.014,72.691 12.737 C 72.531 12.385,72.529 12.241,72.683 12.100 C 72.832 11.963,72.849 11.976,72.749 12.151 C 72.666 12.296,72.680 12.345,72.786 12.279 C 72.880 12.221,72.931 11.948,72.899 11.672 C 72.867 11.396,72.911 10.985,72.997 10.758 C 73.085 10.527,73.090 10.306,73.009 10.256 C 72.930 10.207,72.906 10.007,72.957 9.812 C 73.017 9.582,72.952 9.403,72.771 9.302 C 72.618 9.216,72.533 9.081,72.583 9.001 C 72.632 8.922,72.599 8.811,72.510 8.756 C 72.421 8.701,72.390 8.546,72.442 8.411 C 72.493 8.277,72.458 8.167,72.362 8.167 C 72.267 8.167,72.142 8.018,72.084 7.837 C 72.027 7.655,71.928 7.517,71.865 7.530 C 71.626 7.578,71.172 7.292,71.261 7.149 C 71.312 7.067,71.194 7.000,71.000 7.000 C 70.773 7.000,70.690 6.930,70.768 6.805 C 70.847 6.677,70.800 6.644,70.630 6.709 C 70.488 6.764,70.213 6.697,70.019 6.561 C 69.825 6.426,69.667 6.365,69.667 6.426 C 69.667 6.488,69.470 6.409,69.229 6.252 C 68.943 6.064,68.840 6.043,68.931 6.191 C 69.016 6.329,68.888 6.297,68.602 6.110 C 68.344 5.941,68.007 5.836,67.853 5.876 C 67.699 5.917,67.476 5.845,67.357 5.718 C 67.238 5.591,66.922 5.443,66.654 5.389 C 66.386 5.336,66.167 5.217,66.167 5.126 C 66.167 5.036,65.994 4.994,65.783 5.035 C 65.571 5.075,65.295 4.996,65.167 4.860 C 65.006 4.687,64.915 4.670,64.870 4.805 C 64.824 4.946,64.711 4.934,64.467 4.762 C 64.281 4.632,64.012 4.570,63.870 4.624 C 63.700 4.689,63.653 4.657,63.732 4.528 C 63.817 4.391,63.640 4.333,63.135 4.331 C 62.610 4.329,62.484 4.285,62.667 4.167 C 62.880 4.029,62.874 4.005,62.625 4.003 C 62.465 4.001,62.333 3.925,62.333 3.833 C 62.333 3.742,62.150 3.667,61.927 3.667 C 61.703 3.667,61.471 3.589,61.412 3.493 C 61.354 3.398,61.162 3.365,60.986 3.421 C 60.763 3.492,60.667 3.443,60.667 3.259 C 60.667 3.059,60.549 3.016,60.177 3.082 C 59.895 3.131,59.636 3.086,59.568 2.975 C 59.489 2.847,59.522 2.827,59.667 2.917 C 59.810 3.005,59.845 2.986,59.767 2.861 C 59.703 2.757,59.487 2.696,59.287 2.727 C 59.088 2.757,58.821 2.678,58.695 2.552 C 58.519 2.376,58.410 2.367,58.232 2.515 C 58.064 2.654,58.000 2.656,58.000 2.520 C 58.000 2.418,57.813 2.333,57.583 2.333 C 57.354 2.333,57.167 2.254,57.167 2.157 C 57.167 2.060,57.100 2.021,57.019 2.072 C 56.938 2.122,56.782 2.056,56.673 1.925 C 56.565 1.794,56.378 1.724,56.259 1.769 C 56.140 1.815,55.995 1.728,55.937 1.575 C 55.861 1.379,55.714 1.327,55.432 1.398 C 55.164 1.465,55.004 1.417,54.939 1.249 C 54.887 1.112,54.654 1.000,54.422 1.000 C 54.190 1.000,53.999 0.906,53.997 0.792 C 53.996 0.663,53.948 0.647,53.872 0.750 C 53.696 0.990,53.104 1.069,53.250 0.833 C 53.319 0.722,53.224 0.607,53.017 0.553 C 52.824 0.502,52.667 0.390,52.667 0.303 C 52.667 0.216,52.517 0.192,52.333 0.250 C 52.142 0.311,52.000 0.280,52.000 0.178 C 52.000 -0.041,41.232 -0.075,41.097 0.144 " stroke="none" fill="#ffffff" fill-rule="evenodd"></path></g></svg>