<svg width="759" height="192" viewBox="0 0 759 192" fill="none" xmlns="http://www.w3.org/2000/svg">
<path d="M122.167 0.0567349C131.05 -0.740908 138.709 7.0502 145.394 12.221L167.744 29.517L193.631 49.4519C198.742 53.3906 204.671 57.745 209.475 61.9636C213.903 65.795 217.895 70.1063 221.379 74.8198C232.524 89.6838 237.282 108.412 234.59 126.823C231.621 146.651 220.672 163.488 204.711 175.299C185.939 188.964 162.531 194.576 139.64 190.898C129.48 189.339 120.07 186.053 110.996 181.207C88.7772 169.342 68.6085 142.196 72.6254 115.795C69.2871 118.531 65.2754 121.66 62.1694 124.576C59.1904 126.647 55.9526 129.587 53.0752 131.93C44.2162 139.142 35.407 146.78 26.3975 153.772C22.0535 156.979 15.7941 159.406 10.4087 158.205C-1.85557 155.469 -2.85275 141.232 5.16487 133.206C9.19033 129.176 13.3644 126.234 17.749 122.863L36.117 108.722C53.9077 94.9867 74.8985 77.9018 92.9704 65.3338C91.6979 65.4652 90.1326 65.4565 88.8448 65.4659C75.6544 65.5623 62.4566 65.5837 49.2663 65.5691C47.5426 65.5672 45.38 65.5815 43.7326 65.3057C26.2867 62.3857 33.4872 43.1801 47.6785 42.1606C54.2016 41.6349 60.5499 41.764 67.0364 41.7576L100.328 41.737L128.284 41.6758C132.531 41.6694 140.316 41.465 144.261 41.9914C139.763 38.7604 133.964 34.0836 129.501 30.1474C124.698 25.9109 111.179 17.1313 110.021 11.1316C108.773 4.6668 116.585 0.974373 122.167 0.0567349Z" fill="#FA0000"/>
<path d="M150.566 65.4036C189 62.4784 219.284 103.861 193.774 137.168C184.75 148.95 171.919 154.315 157.469 156.03C131.86 157.487 105.984 141.707 103.69 114.484C102.771 103.089 106.423 91.7985 113.832 83.1219C123.359 71.8229 136.148 66.5822 150.566 65.4036Z" fill="#FEFEFE"/>
<path d="M152.439 80.4083C167.586 78.9296 183.55 89.8443 185.755 105.42C186.778 112.625 184.876 119.941 180.476 125.723C174.704 133.394 166.976 136.76 157.752 138.055C155.755 138.114 153.724 138.192 151.729 138.073C137.407 137.215 124.025 126.449 122.767 111.563C122.192 104.333 124.503 97.1709 129.19 91.6544C135.196 84.5068 143.337 81.1981 152.439 80.4083Z" fill="#FA0000"/>
<path d="M248.784 61.5929C254.319 63.2656 263.29 65.4276 268.953 66.7068C268.651 73.9992 268.898 83.7129 268.844 91.1452C275.28 84.9462 281.409 83.1546 290.08 82.8015C310.742 81.9606 328.602 95.1383 328.35 116.964C328.245 126.135 325.424 133.704 319.058 140.386C307.042 153.143 282.186 154.593 268.87 142.798C268.931 144.732 268.98 146.666 269.018 148.601C262.219 148.566 255.418 148.576 248.618 148.629L248.646 89.4766C248.646 82.8998 248.149 67.1705 248.784 61.5929ZM290.652 135.669C301.002 134.056 308.055 124.272 306.352 113.89C304.649 103.508 294.844 96.515 284.526 98.3232C274.345 100.107 267.495 109.8 269.176 120.045C270.856 130.289 280.439 137.261 290.652 135.669Z" fill="#FF0000"/>
<path d="M597.705 61.5606C598.31 63.8802 597.78 80.1044 597.776 83.5774L597.802 148.602C591.064 148.554 584.326 148.567 577.589 148.642L577.578 142.797C563.4 155.196 539.877 152.746 526.842 139.785C521.662 134.716 518.875 126.674 518.281 119.592C516.56 99.1363 531.16 84.1489 551.156 82.9557C561.984 82.3096 569.159 83.6663 577.589 90.9126L577.581 66.7533C584.308 65.0982 591.016 63.3673 597.705 61.5606ZM561.816 135.63C572.139 133.893 579.075 124.042 577.271 113.686C575.467 103.329 565.611 96.4321 555.317 98.3213C545.128 100.191 538.349 109.968 540.135 120.217C541.92 130.466 551.601 137.348 561.816 135.63Z" fill="#FF0000"/>
<path d="M391.054 81.5253C391.64 81.4634 392.227 81.415 392.813 81.3801C409.639 80.3453 427.018 85.341 433.225 102.813C435.508 109.239 435.504 114.711 435.896 121.42C432.815 121.006 421.584 121.236 418.106 121.238L380.488 121.25C380.626 122.566 380.794 123.799 381.1 125.09C381.989 128.912 384.35 132.224 387.666 134.299C394.655 138.583 405.479 137.178 410.569 130.535C411.264 129.632 411.996 128.351 412.586 127.362L417.102 129.839C420.325 132.048 425.823 135.032 429.319 137.056C429.072 137.388 428.818 137.715 428.561 138.037C414.065 155.893 372.872 155.495 362.213 133.557C350.258 108.954 362.974 84.275 391.054 81.5253ZM381.022 107.668L399.734 107.684C404.253 107.671 409.116 107.746 413.606 107.632C410.875 97.3664 405 94.2318 394.584 95.0137C386.247 96.2704 383.17 99.7449 381.022 107.668Z" fill="#FF0000"/>
<path d="M635.2 81.5201C646.39 79.7348 662.084 82.7707 670.372 91.042C678.903 99.5562 680.233 109.757 680.393 121.242C662.092 121.001 643.406 121.226 625.06 121.199C625.202 122.392 625.4 123.579 625.65 124.753C626.472 128.657 628.821 132.065 632.171 134.207C638.45 138.157 648.048 137.347 653.483 132.281C655.13 130.747 656.023 129.226 657.195 127.336L662.275 130.204L673.962 137.046C661.065 153.557 630.827 154.896 614.722 142.72C600.462 131.94 598.62 108.228 609.339 94.4059C615.734 86.1631 625.183 82.7107 635.2 81.5201ZM625.646 107.642L645.4 107.654C649.535 107.641 654.148 107.716 658.245 107.593C655.182 96.7934 649.516 94.3301 638.7 95.004C630.547 96.542 627.734 99.8361 625.646 107.642Z" fill="#FF0000"/>
<path d="M485.836 81.9407C514.367 83.0649 513.385 99.3033 513.392 121.843L513.4 148.599C506.658 148.547 499.917 148.564 493.175 148.647C493.022 139.484 493.306 130.257 493.19 121.098C493.097 113.407 493.971 100.727 484.196 98.7048C478.388 97.5026 472.775 98.3059 467.669 101.419C459.105 108.329 460.621 117.843 460.651 127.772L460.692 148.609C453.966 148.546 447.235 148.56 440.509 148.65L440.449 88.4733C447.194 88.5168 453.943 88.5097 460.689 88.4527C460.718 90.074 460.618 91.7493 460.539 93.3733C468.095 85.3886 475.079 82.5144 485.836 81.9407Z" fill="#FF0000"/>
<path d="M722.602 81.4938C724.988 81.2571 728.044 81.4777 730.419 81.7996C730.382 87.557 730.4 93.3144 730.468 99.0714C706.433 97.0636 704.622 110.55 705.29 130.25C705.488 136.082 705.316 142.707 705.331 148.609L689.94 148.584L685.137 148.649L685.069 88.4774L704.812 88.4812C705.753 89.4522 705.092 89.7464 705.406 91.5505C706.321 91.3794 710.011 86.8621 711.52 85.864C715.345 83.3283 718.079 82.1568 722.602 81.4938Z" fill="#FF0000"/>
<path d="M332.969 66.727C339.707 66.8002 346.445 66.7979 353.183 66.7206L353.174 148.66C347.519 148.31 338.821 148.581 333.007 148.657L332.969 66.727Z" fill="#FF0000"/>
<path d="M748.683 69.9359C752.889 68.6223 757.356 70.9918 758.648 75.2216C759.94 79.4515 757.565 83.9305 753.348 85.2115C749.157 86.4861 744.728 84.1147 743.443 79.9081C742.158 75.7012 744.504 71.2428 748.683 69.9359ZM750.353 76.3972C750.386 78.0692 750.588 80.7606 750.039 82.2424C749.437 82.6093 749.008 82.4874 748.302 82.4082L747.895 81.767L747.876 72.6983C759.694 72.576 751.223 75.6044 755.342 81.6386C758.689 80.6451 758.472 71.2777 749.833 71.2289C745.949 72.935 743.432 76.0269 745.389 80.382C746.035 81.8259 747.226 82.9515 748.702 83.5121C750.345 84.1309 753.184 84.0138 754.539 82.863C753.553 81.561 753.337 82.6322 752.672 81.2338C751.902 79.6207 751.122 78.0103 750.353 76.3972Z" fill="#FA0000"/>
</svg>
