<svg width="619" height="208" viewBox="0 0 619 208" fill="none" xmlns="http://www.w3.org/2000/svg">
<path d="M160.564 69.654C164.825 69.6622 182.355 69.2565 184.999 69.9928C187.598 72.3281 198.612 101.668 201.666 107.432C203.543 103.659 205.237 99.6166 207.028 95.7714C209.545 90.367 212.179 85.3179 213.932 79.6153C211.336 73.1463 209.005 74.4335 205.186 69.8499C218.819 69.0522 235.447 69.896 249.427 69.6134C247.695 71.2256 244.297 73.1065 243.235 74.9938C240.091 80.5821 245.969 89.8684 248.026 94.8669L259.54 122.203C264.255 133.395 267.274 142.467 276.515 150.73C276.981 151.147 277.092 151.237 277.216 151.831C274.724 152.532 264.112 152.322 260.833 152.324C250.582 152.378 240.33 152.329 230.08 152.177C234.34 148.207 238.318 144.93 236.732 138.541C235.821 134.873 222.446 102.229 221.047 101.766L220.678 102.471C218.271 106.892 215.252 114.038 213.07 118.814C208.393 129.12 203.642 139.393 198.818 149.632C198.11 151.121 195.493 157.72 194.432 157.778C192.185 155.781 172.964 108.124 169.653 101.497C166.97 105.657 153.866 134.284 153.909 137.101C153.991 142.504 160.845 146.799 164.288 150.087C164.805 150.58 165.179 150.916 165.184 151.639C163.86 152.676 152.127 152.306 149.87 152.306L123.502 152.273C125.729 149.721 128.488 147.013 130.59 144.417C132.394 142.189 135.876 137.689 137.138 135.121C140.485 128.309 143.692 121.183 146.852 114.254C151.246 104.62 155.849 95.0598 160.101 85.3727C160.428 84.6261 161.347 82.1287 161.156 81.4041C159.518 75.2053 151.113 73.2835 146.98 69.9859C151.121 69.5767 156.329 69.679 160.564 69.654Z" fill="#FA0000"/>
<path d="M419.039 69.633C431.059 69.6092 446.148 69.2157 457.933 69.7506C456.779 73.1851 446.879 94.9858 445.466 96.4042C444.379 96.3389 443.649 94.3641 443.238 93.3781C435.906 75.2634 414.493 75.4746 407.843 94.1514C404.185 104.43 404.221 120.377 408.541 130.466C413.307 141.596 423.684 145.447 434.765 140.39C434.464 133.411 435.261 126.428 434.328 119.427C433.709 114.781 425.692 113.139 425.23 111.05C426.407 110.45 457.534 110.631 461.313 110.627C462.708 110.663 463.444 110.466 464.271 111.663C464.715 116.942 464.884 166.789 464.157 168.597C464.075 168.797 463.882 169.028 463.764 169.214C463.218 168.855 460.571 162.607 459.529 161.195C450.51 148.965 443.61 150.528 430.47 152.387C415.728 154.474 398.691 151.395 386.819 141.7C378.38 134.942 373.058 125.053 372.083 114.305C370.628 99.393 379.512 84.7667 392.21 77.3829C401.266 72.119 408.842 70.6073 419.039 69.633Z" fill="#FA0000"/>
<path d="M302.932 69.657C318.254 69.5614 333.576 69.6035 348.898 69.7831C343.552 73.879 341.355 75.2327 344.005 82.3697C345.894 87.4501 348.086 92.2527 350.238 97.2145L357.658 114.692C361.12 122.752 364.498 131.549 368.521 139.306C370.399 142.924 374.495 147.198 377.26 150.191C377.906 150.892 378.09 151.086 378.039 151.878C374.235 152.943 336.513 152.354 331.119 152.117C336.754 145.391 340.325 143.717 335.924 134.036C329.667 120.274 324.342 105.307 317.846 91.7463C316.887 88.9831 315.118 85.175 313.928 82.4073L298.386 116.136C306.575 116.139 317.059 115.9 325.034 116.471C309.718 122.274 300.821 132.628 299.482 149.286C299.285 151.74 298.905 153.79 299.05 156.316C298.335 155.976 297.639 155.598 296.965 155.184C289.566 150.567 283.465 143.645 278.521 136.562C277.247 134.737 275.383 132.332 275.249 130.049C275.111 127.702 290.905 94.6451 293.288 89.5699C294.361 87.2846 298.258 80.1653 298.147 78.1186C297.948 74.4633 292.668 72.6245 292.101 70.2044C293.081 69.3832 301.12 69.6528 302.932 69.657Z" fill="#FA0000"/>
<path d="M486.618 69.6567C497.952 69.6417 509.721 69.4825 521.026 69.8174C516.326 74.03 512.399 77.833 512.076 84.5536C511.466 97.2214 511.871 109.993 511.792 122.694C511.952 129.644 511.161 135.317 513.114 142.097C514.379 146.488 519.556 150.332 519.93 151.679C518.605 152.597 513.283 152.312 511.487 152.301L476.385 152.233C481.435 145.57 484.894 144.605 485.009 134.901C485.256 120.917 485 106.733 485.096 92.7756C485.184 79.7549 485.012 79.1251 476.3 69.697L486.618 69.6567Z" fill="#FA0000"/>
<path d="M320.584 170.793L320.889 170.823C321.348 171.887 320.343 172.7 320.288 173.804C320.068 178.465 319.09 188.377 321.321 192.251C318.541 192.278 315.761 192.353 312.984 192.477L314.568 189.982C314.568 187.868 314.52 185.671 314.731 183.573L306.986 183.567C307.354 187.501 305.884 189.194 308.89 192.351L301.538 192.332C301.303 192.379 300.84 192.362 300.578 192.362C300.404 191.77 301.661 189.788 301.762 187.258C302.017 180.91 301.463 177.136 300.699 171.097C301.624 170.748 307.432 170.794 308.902 170.759L307.07 173.406L307.025 178.948C308.746 178.665 313.147 178.781 314.9 178.948C314.786 176.938 313.789 171.995 314.112 171.222C315.229 170.704 319.102 170.816 320.584 170.793Z" fill="#FA0000"/>
<path d="M165.954 178.898C165.739 175.776 165.595 174.297 165.048 171.227L165.392 170.984C166.84 170.91 171.56 170.542 172.541 171.202C172.311 171.969 171.545 173.047 171.52 173.197C170.692 178.085 171.339 184.474 171.23 189.548C171.223 189.892 172.314 191.557 172.524 192.122L171.829 192.316C170.424 192.326 166.09 192.715 165.234 192.017C165.223 191.98 165.788 184.726 165.765 183.569L157.949 183.577C158.09 184.932 158.038 186.317 158.18 187.691C158.322 189.063 159.174 190.942 158.741 192.168C157.943 192.529 152.535 192.378 151.18 192.39C151.74 191.695 152.292 190.731 152.767 189.956C152.573 185.25 153.561 174.185 151.485 170.833C153.112 170.89 157.659 170.514 158.694 171.211C158.791 171.442 158.11 177.646 158.141 178.851C160.745 178.752 163.351 178.768 165.954 178.898Z" fill="#FA0000"/>
<path d="M400.391 170.415C405.517 173.266 409.794 179.305 414.578 183.019C413.473 178.015 415.363 176.817 413.12 171.092C414.216 170.801 419.562 170.789 421.02 170.762C420.386 171.639 419.806 172.329 419.411 173.357C418.231 176.435 420.042 191.069 418.529 192.851C415.312 190.962 408.68 183.88 405.088 180.897C405.619 185.185 404.243 188.66 406.392 192.304C405.175 192.334 399.588 192.646 398.939 192.112C399.28 191.585 400.08 190.363 400.101 189.765C400.331 183.469 399.564 176.659 400.391 170.415Z" fill="#FA0000"/>
<path d="M355.005 170.865C360.966 170.791 372.552 169.183 372.238 178.26C372.165 180.353 370.402 181.809 368.938 183.046C369.941 184.613 374.861 191.261 374.507 192.42C368.863 194.856 364.975 185.891 362.787 182.105L362.482 181.593C362.944 180.507 367.634 180.093 366.877 176.938C365.832 175.642 364.012 174.631 362.322 175.069C362.029 175.442 361.932 175.414 361.905 175.915C361.664 180.648 361.546 186.02 362.201 190.715C362.554 191.142 362.841 191.492 363.067 191.764L363.013 192.131C361.881 192.463 356.221 192.399 354.619 192.427C355.231 191.747 356.128 190.484 356.188 189.618C356.502 185.191 357.35 174.386 355.005 170.865Z" fill="#FA0000"/>
<path d="M436.709 170.631C439.852 170.497 443.124 170.649 446.278 170.747L446.166 176.804C444.044 175.589 442.879 175.205 440.615 174.448C433.685 175.523 430.751 182.07 436.106 187.467C437.751 189.124 440.585 188.645 442.783 188.326C442.571 184.19 442.659 184.804 440.217 181.369C441.101 180.829 441.916 180.992 443.082 180.945C444.552 181.012 446.821 180.842 448.352 180.771C448.346 184.225 448.412 187.679 448.548 191.131L447.664 191.419C440.443 193.741 431.282 194.048 428.581 185.276C427.657 182.244 427.974 178.972 429.462 176.172C431.131 173.044 433.431 171.641 436.709 170.631Z" fill="#FA0000"/>
<path d="M229.87 170.638C233.078 170.449 236.892 170.624 240.088 170.869C239.993 172.919 240.012 175.13 239.991 177.194C237.608 175.768 236.74 175.39 234.137 174.476C228.112 175.281 224.87 180.649 227.938 185.869C228.729 187.201 230.032 188.153 231.545 188.503C232.708 188.78 234.993 188.84 235.947 188.178C238.348 186.512 234.518 182.806 233.531 181.51C234.346 180.906 234.566 181.057 235.663 180.951C237.636 181.016 239.498 180.861 241.462 180.727C241.509 184.284 241.579 187.841 241.672 191.398C234.638 192.956 225.436 194.888 222.21 185.94C221.137 182.922 221.307 179.602 222.683 176.709C224.321 173.295 226.438 171.839 229.87 170.638Z" fill="#FA0000"/>
<path d="M181.617 170.814C186.561 170.995 191.715 170.83 196.701 170.904C196.655 172.876 196.433 174.554 196.192 176.499C193.638 174.738 191.254 175.09 188.243 175.118C188.307 176.384 188.3 177.81 188.322 179.091C189.503 179.113 190.758 179.132 191.937 179.039C193.114 178.945 194.177 178.393 195.335 178.496L195.596 178.927C195.556 180.748 195.851 182.287 194.705 183.466C192.53 184.05 189.93 182.105 188.262 183.681L188.247 184.744C188.273 185.865 188.141 187.097 188.84 187.924C190.167 188.809 192.508 188.386 194.247 188.283C195.002 187.794 196.215 186.724 196.945 186.117C196.814 188.265 196.784 190.251 196.761 192.397C192.287 192.656 186.096 192.511 181.495 192.537C182.031 191.698 182.784 190.507 182.812 189.543C182.947 184.93 183.967 174.561 181.617 170.814Z" fill="#FA0000"/>
<path d="M344.584 170.745C344.983 170.729 344.968 170.805 345.378 171.026C345.816 172.194 345.478 174.768 345.091 176.011C344.554 176.54 344.85 176.404 343.757 175.747C342.239 174.835 339.018 175.102 337.138 175.117C337.322 176.815 337.313 177.348 337.141 179.049C340.869 179.251 341.403 178.496 343.501 178.569C344.859 179.498 344.708 181.504 344.138 182.884C342.882 184.018 339.848 183.173 337.132 183.212L337.488 188.394C339.033 188.4 341.4 188.47 342.915 188.248C343.646 188.141 344.301 186.945 345.387 186.992C345.562 188.488 345.589 190.892 345.656 192.458C343.546 192.481 331.647 192.844 330.729 192.181C331.001 191.305 332.07 188.294 332.051 187.674C331.882 182.375 333.054 175.473 330.424 170.818C334.279 171.044 340.784 170.96 344.584 170.745Z" fill="#FA0000"/>
<path d="M259.51 169.881C261.309 170.745 268.021 188.894 271.084 192.336C269.034 192.322 266.728 192.359 264.684 192.306C262.666 192.254 264.4 190.909 263.014 189.03C262.114 188.337 261.374 188.416 260.248 188.376C258.248 188.355 256.419 187.959 255.03 189.62C254.642 190.513 254.929 191.166 255.191 192.098C254.416 192.546 249.853 192.304 248.612 192.283C249.425 189.612 258.135 171.44 259.51 169.881ZM256.662 184.759L260.574 184.765L261.546 184.677C261.882 183.52 260.196 179.482 259.201 178.893C258.385 180.943 257.671 182.785 256.662 184.759Z" fill="#FA0000"/>
<path d="M276.43 170.907C281.435 170.859 286.439 170.869 291.443 170.938L292.046 176.49C290.499 175.79 288.782 174.963 287.069 175.485C285.82 176.933 285.857 189.61 287.345 191.446C287.434 191.509 287.742 191.918 287.832 192.032C287.169 192.532 281.037 192.404 279.772 192.365C279.806 191.458 280.998 190.068 281.034 188.822C281.166 184.352 280.63 179.317 281.005 174.912C278.199 175.453 277.554 175.523 275.179 177.119C275.558 174.9 275.902 173.108 276.43 170.907Z" fill="#FA0000"/>
<path d="M127.277 170.846C131.662 170.65 137.997 170.893 142.534 170.92L142.824 176.265C140.355 175.411 139.74 175.419 137.181 175.176C137.177 178.631 136.879 187.4 137.527 190.3C137.855 190.807 138.798 191.826 139.234 192.324C136.246 192.319 133.406 192.326 130.422 192.45C133.023 188.655 131.581 181.286 131.919 176.784C131.977 176.016 131.683 175.626 131.138 175.198C129.444 174.985 127.72 176.001 126.362 176.886C126.609 174.621 126.816 173.1 127.277 170.846Z" fill="#FA0000"/>
<path d="M390.318 170.788L390.675 170.843C390.976 171.885 389.841 172.494 389.715 173.502C389.072 178.719 389.183 184.183 389.518 189.427C389.588 190.512 390.665 191.241 390.714 192.149C389.452 192.462 385.036 192.375 383.496 192.377C382.911 192.43 383.134 192.489 382.654 192.157C382.905 191.799 383.143 191.434 383.37 191.062C384.77 188.75 384.034 174.474 383.21 171.167C383.919 170.74 389.084 170.805 390.318 170.788Z" fill="#FA0000"/>
<path d="M60.1177 0H61.485C62.6267 20.9984 65.397 42.1808 67.5369 63.1008C68.4032 71.5702 70.4802 80.0811 71.7139 88.471C74.3394 88.5465 76.35 88.6877 78.9613 88.9696C80.5615 78.2311 83.0759 67.6717 84.0998 56.6895C84.6917 50.343 85.3114 43.8081 85.8825 37.4871C86.1137 34.928 86.7998 23.7542 87.5943 21.6162L87.9602 21.3701C88.7422 22.8665 88.4953 26.637 88.8144 28.4103C90.3448 36.9097 90.5368 45.9619 91.8024 54.4635C93.7237 67.3702 95.8463 80.7605 99.2099 93.3639C101.689 93.9615 103.036 94.3259 105.438 95.2304C109.394 83.4225 111.043 72.0793 112.921 59.8276C113.287 57.4403 114.312 45.1308 114.813 43.7205L115.191 43.6158C116.464 44.9208 121.622 101.395 121.939 107.457C118.137 109.158 114.068 110.835 110.458 112.799C91.2322 123.258 78.338 140.428 70.8482 160.726C65.4393 175.384 63.1307 191.449 61.3181 207.018H60.4805C59.8511 203.522 59.6972 198.884 59.1626 195.175C57.248 181.889 54.9711 170.341 49.9483 157.81C42.3712 138.906 30.1478 123.44 12.2863 113.235C8.14939 110.871 4.36173 109.336 0 107.479V102.373C1.00516 98.8523 1.13639 92.7748 1.49443 88.9723L4.34856 61.3023C4.63067 58.6448 5.36719 45.9878 6.96317 44.5862C7.99089 46.1494 8.1908 53.5614 8.47231 55.8678C9.36434 62.7024 10.4134 69.5159 11.6187 76.3027C12.8774 83.27 14.4907 88.4846 16.2093 95.2788C18.8088 94.4089 22.5996 94.0136 23.308 91.1295C26.9156 76.4408 29.1245 61.7416 30.9301 46.7512C31.8284 39.2925 32.203 29.3641 33.8225 22.3194L34.3706 22.086L33.9574 21.928L34.1183 21.7484C35.1331 22.6687 35.3888 30.5565 35.5306 32.5331C36.3523 44.9431 37.7109 57.3121 39.6026 69.6053C40.3941 74.7708 42.5475 84.5822 42.9115 88.9365C45.2838 88.7331 47.659 88.5706 50.037 88.4493C52.8627 76.8118 54.4664 62.4517 55.7263 50.538C57.4677 34.0737 59.7144 16.5057 60.1177 0Z" fill="#FA0000"/>
<path d="M618.192 127.221C607.854 143.386 592.671 153.771 572.917 152.796C559.216 152.119 546.979 147.375 537.55 137.362C518.153 116.764 526.873 86.0798 551.854 74.995C565.157 68.9319 575.945 69.5096 590.159 69.6203C597.76 69.6796 605.333 69.4657 612.877 69.7744C610.226 76.6599 603.703 91.0202 600.193 97.287C599.837 96.622 599.29 95.4639 598.994 94.755C594.823 84.8669 585.471 76.3505 574.206 81.1784C563.789 85.6441 560.913 97.3815 560.267 107.576C559.536 119.112 561.628 136.66 574.095 141.402C584.747 145.454 598.786 138.819 607.579 132.885C610.661 130.813 614.953 127.277 618.09 125.918L618.192 125.874V127.221Z" fill="#FA0000"/>
</svg>
