<svg width="496" height="105" viewBox="0 0 496 105" fill="none" xmlns="http://www.w3.org/2000/svg">
<path d="M206.913 4.84857C207.048 4.58818 207.189 4.3304 207.334 4.07539C207.782 3.30654 209.718 2.91404 210.536 2.5538C212.158 1.84 216.525 1.52127 217.995 2.39532C218.078 2.54444 218.158 2.6956 218.233 2.84866C218.944 4.26207 218.87 5.36853 219.146 6.89668C219.241 7.91995 219.661 9.09006 219.744 10.0927C219.893 11.9107 220.239 13.6477 220.535 15.4447C220.73 16.6243 220.764 17.8442 221 19.0046C221.178 19.8785 221.858 20.8402 222.174 21.6871C223.189 24.3799 224.522 27.0203 225.329 29.7809C225.992 32.0509 226.72 34.2724 227.407 36.5308C227.407 36.5308 227.307 36.8362 227.297 36.8657C227.345 37.2406 227.772 37.3864 227.863 37.7073C228.107 38.5707 228.23 39.4905 228.451 40.3597C228.9 42.1207 228.867 43.8778 229.386 45.6226C229.897 47.3388 229.785 49.3605 229.918 51.1306L230.153 54.7269C230.317 56.9169 230.433 58.7979 230.161 60.9888C230.099 61.4903 229.944 62.25 229.947 62.7304C229.952 64.3827 229.799 65.9676 229.557 67.6038C229.491 68.0602 229.243 68.8239 229.126 69.3174L228.042 73.8444C227.896 74.4532 227.983 75.3753 227.835 75.9589C227.661 76.5223 227.473 77.0705 227.266 77.6267C226.76 78.9926 226.366 80.4716 225.832 81.816C225.489 82.6762 225.25 83.3332 225.022 84.2279C224.885 84.7661 224.559 85.4397 224.339 85.9483C224.158 86.6788 223.824 87.2155 223.551 87.8992C223.233 88.6939 222.995 89.4597 222.603 90.2262C221.9 91.6015 221.27 92.9753 220.486 94.3089C223.531 95.3448 225.005 97.0241 224.493 100.202C224.304 101.377 223.395 103.821 221.999 103.97C220.708 104.108 219.135 104.029 217.855 104.029H138.663C136.514 104.031 134.358 104.038 132.209 104.032C131.574 104.03 131.136 103.8 130.579 103.529C130.316 103.108 129.832 102.599 129.631 102.224C128.566 100.246 128.268 97.1236 130.289 95.6157C131.285 94.8722 132.065 94.4104 133.263 94.3831C132.135 93.2743 130.917 89.9517 130.193 88.4352C129.679 87.3582 129.173 86.2084 128.74 85.0939C128.473 84.4081 128.331 83.5889 128.072 82.893C126.61 79.0294 125.483 75.1023 124.783 71.0285C124.32 68.3386 123.605 65.7335 123.805 62.9629C123.83 62.6217 123.475 61.5077 123.445 61.0113C123.27 58.2739 123.28 55.5277 123.476 52.7917C123.544 51.8502 123.672 50.9129 123.784 49.9748C123.824 49.5711 123.779 49.1635 123.806 48.7607C124.04 45.2801 124.908 41.8958 125.365 38.4328C125.609 37.2285 126.39 35.8042 126.666 34.659C127.738 30.1263 129.496 25.9299 131.254 21.637C132.015 19.4909 132.355 17.2348 132.92 15.0313C133.118 14.257 133.055 13.1336 133.224 12.3058C133.587 10.5213 133.834 8.78064 134.272 7.00723C134.55 5.53822 134.634 3.95719 135.327 2.60412C135.554 2.16149 136.332 2.04821 136.787 1.94334C136.96 1.95075 136.809 1.93797 136.935 1.96807C138.514 2.35214 140.206 1.55522 141.795 2.15842C143.382 2.76059 146.774 3.26225 146.467 5.62029C146.241 7.35557 146.147 9.47541 145.621 11.1215L150.304 11.1133C151.236 11.1053 152.361 11.0549 153.274 11.1318C153.392 10.2365 153.43 9.63038 153.493 8.74274C153.632 6.78325 153.668 4.73824 154.089 2.82632C154.139 2.5986 154.683 2.36056 154.913 2.33339C157.671 2.15154 160.458 1.98253 163.224 2.02666C164.096 2.03765 165.986 2.23642 166.676 1.95784C168.16 2.37482 169.041 3.55533 170.097 4.67123C170.648 5.25273 170.34 6.73079 170.361 7.45716C170.396 8.67891 170.106 9.59356 169.809 10.7786C170.005 10.8439 170.649 11.0732 170.812 11.0658C171.784 11.0214 172.531 10.8334 173.536 10.8515C174.402 10.867 175.186 10.9653 176.025 10.9916C176.663 11.0116 177.664 10.7896 178.329 10.8501C179.787 10.9825 181.203 10.9565 182.659 11.0438C182.847 11.0551 183.466 10.8394 183.684 10.7669C183.617 10.5076 183.556 10.247 183.501 9.98512C183.238 8.71176 183.019 5.39618 183.727 4.26189C184.031 3.77295 185.524 2.37743 186.115 2.16938C186.384 2.07466 186.731 1.99346 187.034 1.93311C187.228 2.0072 187.414 2.08617 187.624 2.08805C188.437 2.09534 189.231 2 190.038 1.9906C191.1 1.97824 198.695 2.0839 199.167 2.56455C199.602 3.00777 199.871 6.09508 199.862 6.7888C199.853 7.44371 199.687 8.10327 199.701 8.75542C199.72 9.58874 199.932 10.2638 199.832 11.1267C201.468 11.0821 203.113 11.1286 204.753 11.1157C205.753 11.1078 206.81 11.047 207.808 11.126C207.975 11.1392 207.878 11.1588 208.021 11.0524C207.663 9.57073 207.359 8.02415 207.16 6.51081C207.085 5.94191 207.034 5.41372 206.913 4.84857ZM198.527 71.1579C199.125 70.8318 200.256 71.0519 201.218 70.6537C202.647 70.0621 203.72 69.803 204.931 68.6958C207.724 66.8282 209.805 63.8938 210.784 60.6698C211.853 57.1496 211.162 52.1964 209.502 48.9181C207.829 45.8205 204.419 43.2613 201.098 42.2131C199.701 41.7722 198.339 41.8977 196.97 41.7815C196.95 41.7903 196.929 41.7989 196.909 41.8076C196.014 42.0144 194.963 42.0088 194.057 42.341C193.392 42.5852 192.664 43.0888 192.027 43.4353C191.529 43.7059 189.781 44.592 189.442 44.9078C187.759 46.4745 186.375 48.8422 185.438 50.9024C184.231 53.557 184.101 56.5609 184.552 59.3964C184.665 60.1038 184.965 60.9504 185.196 61.6234C185.289 61.8944 185.326 62.3851 185.416 62.5877C185.734 63.3109 186.267 64.0788 186.647 64.7333C188.506 67.9419 191 69.2293 194.301 70.6273C195.195 71.0061 196.302 71.0815 197.285 71.2049C197.393 71.2185 197.742 71.03 197.877 71.0386C198.125 71.0545 198.282 71.2338 198.527 71.1579Z" fill="#FA0000"/>
<path d="M29.515 104.94H0V0.79971H11.7703C14.921 0.79971 19.6766 0.681235 26.0374 0.444284C32.3981 0.148095 37.6294 0 41.7311 0C53.2637 0 62.0022 3.05075 67.9468 9.15226C73.8915 15.2538 76.8638 24.406 76.8638 36.609C76.8638 43.9545 75.8829 50.6484 73.9212 56.6907C72.0189 62.6737 69.433 67.5905 66.1635 71.4409C62.8939 75.2914 59.1786 78.2533 55.0173 80.3266C50.8561 82.4 46.4571 83.4366 41.8203 83.4366C41.2258 83.4366 40.6017 83.4366 39.9478 83.4366C39.3533 83.4366 38.7886 83.4366 38.2535 83.4366C37.778 83.3774 37.1835 83.3478 36.4702 83.3478C35.8163 83.2885 35.2812 83.2589 34.8651 83.2589C34.5084 83.1997 33.9734 83.1701 33.2601 83.1701C32.6062 83.1108 32.1603 83.0812 31.9225 83.0812C31.6847 83.0812 31.2389 83.0516 30.585 82.9923C29.9311 82.9331 29.5744 82.9035 29.515 82.9035V104.94ZM47.6163 32.6993C47.6163 28.3157 46.4274 24.7615 44.0495 22.0365C41.6717 19.3116 38.2535 17.9491 33.7951 17.9491H29.515V64.1547H32.8142C37.5105 64.1547 41.1367 62.5849 43.6929 59.4453C46.3085 56.3057 47.6163 51.774 47.6163 45.8502V32.6993Z" fill="#FA0000"/>
<path d="M83.8635 104.94V0.79971H114.27V104.94H83.8635Z" fill="#FA0000"/>
<path d="M267.329 104.94H238.973V9.15226L234.604 0.79971H267.418L283.825 34.5653L299.519 68.2421L295.15 28.7008V0.79971H323.595V104.94H296.398L275.176 63.7993L262.068 38.0308L267.329 72.1518V104.94Z" fill="#FA0000"/>
<path d="M352.217 104.94V24.3468H331.351V0.79971H403.221V24.3468H382.356V104.94H352.217Z" fill="#FA0000"/>
<path d="M462.401 104.94L458.388 88.3238H433.064L429.676 104.94H403.46L430.657 7.99712L428.517 0.79971H465.344L495.126 104.94H462.401ZM444.567 31.3665L436.72 70.197H454.019L444.567 31.3665Z" fill="#FA0000"/>
</svg>
