<svg width="864" height="213" viewBox="0 0 864 213" fill="none" xmlns="http://www.w3.org/2000/svg">
<path d="M383.833 33.1216C392.026 32.7674 402.512 33.0459 410.874 33.0456L462.346 33.0492C463.218 35.6634 463.583 36.226 465.143 38.4234H459.005C460.859 40.5272 461.642 41.417 462.056 44.3323C462.764 49.3243 462.604 54.5318 462.607 59.5692L462.581 156.034C462.611 161.542 463.498 166.415 470.206 166.548C474.125 166.626 478.076 166.509 481.994 166.479C478.817 163.186 478.555 160.521 478.438 155.89C478.242 148.175 478.34 140.243 478.347 132.515L478.337 62.6312C478.337 56.6222 478.122 50.2418 478.879 44.2921C479.224 41.5745 480.203 40.34 481.942 38.4234H475.789C477.423 36.3024 477.805 35.5294 478.418 33.0492L546.863 33.0352C550.739 33.0322 558.237 32.2514 561.225 35.1507C562.364 36.2551 563.261 38.1749 563.333 39.7979C563.594 45.7501 563.487 51.7702 563.483 57.7387L563.451 92.7697L563.46 205.472C560.377 197.026 557.666 189.735 552.465 182.314C548.26 176.309 545.052 173.332 537.845 171.962C543.33 165.395 543.813 159.446 543.907 151.018C544.031 127.582 544.034 104.147 543.91 80.7113L543.92 57.5861C543.92 37.1038 544.534 38.2339 524.269 38.4238C525.949 40.3113 526.618 41.111 527.108 43.6923C528.22 49.562 527.884 56.616 527.881 62.669L527.855 89.0067L527.861 135.24C527.868 143.645 528.269 153.387 527.127 161.646C526.85 163.667 525.568 165.063 524.22 166.479L530.37 166.513C528.837 168.598 528.367 169.475 527.77 171.913L473.723 171.923C465.678 171.924 456.669 172.193 448.695 171.582C446.444 171.409 443.674 168.579 443.442 166.742C442.627 160.216 443.061 150.813 443.061 144.239L443.054 80.283C443.057 71.1435 443.172 61.9841 443.061 52.8475C442.966 45.2527 442.32 39.3814 437.837 33.0759C430.003 44.0726 433.354 60.076 432.643 72.9678C432.31 79.0015 432.545 86.3866 433.171 92.3662C433.465 95.1556 436.007 98.5337 437.72 100.641C432.995 101.689 428.095 102.947 423.377 104.083C426.48 114.446 430.154 127.408 432.088 138.031C433.312 144.731 432.672 155.989 432.672 162.987L432.656 205.386C428.868 193.72 420.949 173.794 407.158 171.912C419.932 155.32 409.961 126.548 404.995 108.572L397.347 110.482L397.357 140.203C397.37 146.814 397.739 154.538 396.642 160.993C396.202 163.6 395.471 164.649 393.713 166.479H399.97C398.264 168.542 397.797 169.305 397.269 171.913H372.44C374.711 169.287 376.433 165.514 376.874 162.1C378.42 150.163 377.797 136.242 377.794 124.058L377.823 59.6611C377.8 53.7706 377.066 42.1988 378.688 36.8621C379.216 35.1239 381.96 33.7044 383.833 33.1216ZM503.182 171.661C509.894 162.654 508.321 147.634 508.318 136.737V67.2419C508.321 59.4198 509.538 38.2904 502.98 33.2452C496.265 42.6841 497.893 57.3939 497.893 68.6408L497.913 106.178L497.897 138.473C497.893 146.223 496.729 166.541 503.182 171.661ZM397.347 95.8324L408.688 93.0626L413.103 91.9373L413.077 62.7114C413.077 56.8215 412.776 49.9642 413.726 44.2272C414.183 41.4604 414.865 40.4088 416.688 38.4234H403.106C398.156 39.8276 397.354 43.5188 397.331 48.1285C397.301 53.0546 397.318 57.9866 397.318 62.913L397.347 95.8324Z" fill="#FF0000"/>
<path d="M729.117 0.0362045C729.88 2.93518 729.267 23.3779 729.264 27.6877L729.257 141.02C729.251 151.322 728.037 163.357 734.601 171.913L655.625 171.925C643.517 171.927 637.974 173.396 638.763 158.572C638.992 154.247 638.825 148.72 638.825 144.3L638.815 79.9621C638.815 70.788 638.923 61.581 638.812 52.4095C638.721 45.0153 637.967 39.1459 633.563 33.0492H658.105C658.972 35.6347 659.39 36.302 660.963 38.4234H654.767C656.64 40.5295 657.419 41.5233 657.837 44.4497C658.522 49.2623 658.379 54.2905 658.375 59.1504L658.352 78.7096L658.362 148.369C658.15 168.489 659.122 166.637 678.023 166.479C674.548 162.822 674.509 159.785 674.441 154.67C674.327 146.632 674.398 138.472 674.405 130.428L674.395 61.1863C674.392 55.587 674.203 49.6742 674.927 44.1274C675.263 41.5494 676.307 40.2174 677.991 38.4234H671.736C673.403 36.4338 673.811 35.4631 674.483 33.0492H699.273C694.852 38.2597 694.02 45.7217 693.955 52.3635L693.958 147.244C693.961 167.662 692.999 166.656 713.358 166.479C711.697 164.826 710.637 163.309 710.33 160.968C709.286 153.037 709.723 144.465 709.727 136.461L709.733 77.7898C709.733 66.0325 710.418 53.1838 708.513 41.585C708.011 38.5285 705.704 35.4788 703.831 33.0919C718.246 30.1313 724.569 12.3965 729.117 0.0362045Z" fill="#FF0000"/>
<path d="M76.4438 33.1353C82.5463 32.8714 89.72 33.0436 95.8855 33.0436L130.681 33.0492C125.936 39.1439 125.44 46.3552 125.383 53.8391C125.315 62.7421 125.412 71.6576 125.414 80.5629L125.372 145.071C125.391 151.865 126.125 161.293 124.604 167.875C124.194 169.648 121.384 171.092 119.657 171.725C116.405 172.159 105.418 171.925 101.732 171.925L65.2567 171.913C70.1318 165.325 70.495 158.928 70.5377 150.941C70.5837 142.246 70.5162 133.545 70.5158 124.849L70.5455 59.8281C70.5188 53.1694 69.7697 43.4953 71.3687 37.0659C71.8251 35.2296 74.6376 33.7684 76.4438 33.1353ZM86.4652 166.479H100.395C102.686 165.594 104.932 163.945 105.334 161.473C106.438 154.679 105.842 146.296 105.835 139.442L105.888 76.4183C105.885 65.7898 105.393 54.2849 106.502 43.691C106.737 41.448 108.017 40.0122 109.493 38.4234H95.7792C90.1895 40.1365 89.9797 44.829 90.0127 49.8021C90.0668 57.9804 90.105 66.1571 90.0916 74.3357L90.0659 134.972C90.0691 143.604 90.5187 152.881 89.4254 161.449C89.1647 163.492 87.841 165.037 86.4652 166.479Z" fill="#FF0000"/>
<path d="M11.19 33.1353C17.2926 32.8714 24.4662 33.0436 30.6317 33.0436L65.427 33.0492C61.4028 38.3282 60.6181 43.2138 60.2697 49.699C60.3454 56.7233 59.6889 64.233 60.1206 71.211C60.8172 82.4798 57.4086 91.5664 65.3128 100.615L50.9204 104.086C53.7609 114.478 57.7192 127.533 59.5901 137.955C60.5043 143.049 60.1578 157.118 60.1584 162.726L60.1457 205.259C56.1868 193.543 48.54 173.878 34.7316 171.909C35.8237 170.345 36.9066 168.775 37.98 167.198C41.1634 160.428 41.2975 144.149 39.8289 136.598C38.0831 127.622 34.9613 117.514 32.4634 108.578L24.8216 110.493L24.8477 141.621C24.849 147.659 25.1573 154.779 24.2245 160.666C23.7902 163.407 23.0633 164.536 21.2202 166.479H27.4059C25.788 168.556 25.3217 169.404 24.7331 171.913H0C4.83498 165.419 5.23531 159.03 5.28196 151.141C5.33384 142.355 5.26337 133.562 5.26304 124.775L5.29175 59.8281C5.265 53.1694 4.51588 43.4953 6.11493 37.0659C6.57138 35.2296 9.38382 33.7684 11.19 33.1353ZM24.8212 95.8526C28.5022 94.9426 32.3434 93.9302 36.0289 93.106L40.6205 91.9252L40.5924 62.9287C40.5908 56.9236 40.2779 49.8954 41.2717 44.0449C41.7317 41.3364 42.4381 40.3553 44.245 38.4238H30.5254C25.4924 39.9646 24.8209 43.8013 24.7994 48.4622C24.7765 53.3178 24.7909 58.1797 24.7925 63.036L24.8212 95.8526Z" fill="#FF0000"/>
<path d="M736.331 33.0492L772.772 33.0188C778.361 33.0162 785.173 32.7697 790.677 33.2618C798.322 33.9452 796.759 44.6206 796.739 50.246L796.723 74.7486C796.707 85.4684 795.392 97.672 802.025 106.679L792.185 106.685C798.436 110.464 796.785 114.926 796.736 121.557L796.723 140.844C796.704 151.381 795.431 163.061 802.005 171.913H777.281C776.641 169.326 776.064 168.576 774.547 166.479H780.798C779.545 165.214 778.674 164.064 778.162 162.339C776.194 155.736 777.17 134.521 777.189 126.516V106.679H761.215L761.235 140.122C761.238 147.028 761.607 155.329 760.416 162.087C760.093 163.905 758.837 165.157 757.61 166.479H763.861C762.158 168.685 761.858 169.35 761.124 171.913L736.402 171.912C742.915 163.075 741.701 151.958 741.678 141.488L741.672 122.115C741.662 118.768 741.339 114.63 741.929 111.384C742.373 108.968 744.249 107.872 746.191 106.704L736.233 106.679C743.551 97.4994 741.349 81.4406 741.6 70.1249C741.799 60.9394 741.936 50.9013 740.497 41.8795C739.978 38.6289 738.259 35.6719 736.331 33.0492ZM761.137 95.7965H777.189L777.212 61.4169C777.215 55.6581 778.403 44.5038 774.804 40.2708C772.354 37.3856 761.427 38.4495 757.541 38.4238C758.778 39.8211 760.008 41.1251 760.338 43.01C761.486 49.5924 761.157 57.4556 761.157 64.1603L761.137 95.7965Z" fill="#FF0000"/>
<path d="M566.367 33.0492L602.773 33.0237C606.616 33.0221 617.393 32.7964 620.711 33.2599C623.252 33.6392 625.386 35.3754 626.27 37.7868C627.151 40.2271 626.796 46.9667 626.789 49.9423L626.77 74.992C626.763 85.4068 625.491 98.0379 632.124 106.679L622.238 106.688C628.398 110.064 626.819 114.893 626.789 121.144L626.766 141.579C626.747 151.674 625.595 163.543 632.114 171.912L607.428 171.913C606.655 169.328 606.159 168.612 604.623 166.479H610.877L610.655 166.26C605.37 160.932 607.213 135.106 607.233 126.842V106.679H591.265L591.288 140.501C591.288 147.22 591.64 155.206 590.547 161.778C590.211 163.805 589.066 164.969 587.745 166.479H593.95C592.319 168.534 591.849 169.432 591.229 171.913H566.514C572.903 162.912 571.761 152.899 571.738 142.395L571.686 122.291C571.679 119.132 571.483 114.349 572.038 111.279C572.563 108.386 574.511 108.056 576.1 107.149L576.113 107.019C575.288 106.289 567.911 106.662 566.289 106.679C573.627 97.79 571.386 80.8678 571.656 69.8229C571.878 60.7642 571.996 50.7131 570.544 41.8074C570.018 38.5738 568.328 35.6383 566.367 33.0492ZM591.193 95.7965H607.233L607.256 61.1028C607.256 58.2273 607.167 54.4633 607.259 51.6727C607.703 38.0353 604.11 38.2434 592.802 38.3742C591.066 38.4055 589.33 38.4218 587.595 38.4231C589.396 40.3579 590.123 41.4783 590.557 44.1809C591.542 50.3132 591.223 57.6356 591.219 63.9085L591.193 95.7965Z" fill="#FF0000"/>
<path d="M199.315 33.0492L235.721 33.0237C239.565 33.0221 250.339 32.7964 253.66 33.2599C256.201 33.6392 258.332 35.3754 259.217 37.7868C260.099 40.2271 259.745 46.9667 259.736 49.9423L259.717 74.992C259.711 85.4068 258.439 98.0379 265.073 106.679L255.186 106.688C261.347 110.064 259.765 114.893 259.738 121.144L259.716 141.579C259.695 151.674 258.542 163.543 265.062 171.912L240.375 171.913C239.602 169.328 239.108 168.612 237.57 166.479H243.823L243.603 166.26C238.318 160.932 240.16 135.106 240.18 126.842V106.679H224.213L224.234 140.501C224.236 147.22 224.586 155.206 223.496 161.778C223.16 163.805 222.014 164.969 220.694 166.479H226.897C225.266 168.534 224.796 169.432 224.177 171.913H199.461C205.849 162.912 204.709 152.899 204.685 142.395L204.634 122.291C204.627 119.132 204.429 114.349 204.986 111.279C205.51 108.386 207.458 108.056 209.047 107.149L209.06 107.019C208.236 106.289 200.858 106.662 199.235 106.679C206.575 97.79 204.331 80.8678 204.603 69.8229C204.825 60.7642 204.942 50.7131 203.491 41.8074C202.964 38.5738 201.277 35.6383 199.315 33.0492ZM224.141 95.7965H240.18L240.202 61.1028C240.203 58.2273 240.114 54.4633 240.205 51.6727C240.651 38.0353 237.059 38.2434 225.748 38.3742C224.013 38.4055 222.278 38.4218 220.542 38.4231C222.343 40.3579 223.071 41.4783 223.505 44.1809C224.49 50.3132 224.17 57.6356 224.168 63.9085L224.141 95.7965Z" fill="#FF0000"/>
<path d="M193.633 0.043217C193.657 0.342084 193.672 0.64157 193.678 0.941317C193.862 14.9524 193.684 29.4167 193.682 43.4614L193.687 112.817L193.635 147.593C193.635 153.542 193.832 159.603 193.492 165.501C193.126 169.033 190.336 171.449 186.914 171.693C180.976 172.116 174.964 171.938 169.029 171.936L133.287 171.913C140.124 162.503 138.589 148.91 138.549 137.379C145.514 142.232 151.944 141.805 158.09 135.901C157.962 143.414 158.392 151.1 157.856 158.6C157.619 161.925 156.761 164.017 154.526 166.479C155.719 166.47 156.912 166.478 158.104 166.504C161.056 166.544 164.239 166.609 167.172 166.49C175.648 166.146 174.167 154.54 174.155 148.378L174.103 128.119H133.293C136.668 123.53 138.018 119.062 138.258 113.363C138.719 102.463 138.519 91.4526 138.516 80.5329L138.508 61.1198C138.509 51.5083 139.455 40.9923 133.202 33.0492H158.032C158.482 35.5059 159.253 36.4514 160.674 38.4234H154.43C157.432 41.5475 157.676 43.3283 157.892 47.7058C158.134 52.6149 158.036 57.7583 158.04 62.6847L158.047 87.7748C158.045 97.1638 158.425 108.259 157.445 117.623C157.239 119.598 155.77 121.296 154.493 122.745C173.309 122.546 174.135 125.363 174.156 104.702L174.163 63.9313C174.159 56.8913 174.362 49.3435 173.079 42.3808C172.388 38.6296 170.4 35.9922 168.129 33.0782C183.081 30.188 188.402 12.2309 193.633 0.043217Z" fill="#FF0000"/>
<path d="M863.765 0.0304313C863.84 0.350368 863.886 0.516485 863.886 0.854491C863.987 13.2011 863.925 25.5946 863.915 37.9407L863.899 144.603C863.902 149.693 864.196 160.653 863.768 165.178C863.618 166.935 862.864 168.587 861.634 169.852C858.649 172.88 843.2 171.939 838.531 171.937L803.428 171.913C810.263 163.725 808.811 147.935 808.775 137.404C815.803 142.269 822.139 141.76 828.329 135.883C828.29 143.56 828.622 151.56 827.989 159.212C827.738 162.264 826.795 164.26 824.701 166.479C843.419 166.286 844.43 169.017 844.388 148.22L844.336 128.119H803.496C805.797 125.044 807.621 121.377 807.979 117.496C809.611 99.0895 808.397 80.2961 808.762 61.7936C808.955 51.9695 809.529 41.2467 803.467 33.0492H828.022C828.919 35.6318 829.327 36.258 830.887 38.4234H824.645C827.794 41.828 828.097 44.0501 828.169 48.8526C828.368 62.2421 828.342 75.5102 828.296 88.9385C828.26 98.1883 828.701 108.597 827.627 117.776C827.402 119.686 825.944 121.366 824.691 122.745C837.716 122.634 845.464 125.794 844.362 108.975C844.313 108.253 844.365 107.198 844.365 106.444L844.368 64.6352C844.368 57.3897 844.629 49.6511 843.295 42.5031C842.564 38.5898 840.691 36.1213 838.362 33.056C852.792 30.3104 859.106 12.2272 863.765 0.0304313Z" fill="#FF0000"/>
<path d="M268.559 0C273.802 11.6982 278.97 30.7383 294.047 32.9409C289.039 39.7643 288.086 44.2057 288.06 52.7555C287.995 75.369 288.05 98.0343 288.037 120.644L288.031 146.177C288.034 167.316 286.419 166.652 307.705 166.479C302.357 161.035 304.07 144.029 304.086 136.199C309.506 141.16 315.003 141.907 321.601 138.826C322.142 138.482 322.762 138.147 323.323 137.827C324.097 138.657 323.483 152.671 323.712 155.185C324.348 162.128 324.654 166.205 328.916 171.913L293.391 171.945C287.14 171.949 280.301 172.274 274.109 171.469C271.225 171.093 268.706 168.29 268.592 165.355C268.347 159.123 268.5 152.798 268.504 146.536L268.494 38.8765C268.494 26.0121 268.334 12.8208 268.559 0Z" fill="#FF0000"/>
<path d="M83.2664 186.994C91.6042 187.145 100.301 187.018 108.667 187.017C108.584 190.387 108.867 209.329 108.451 211.125L107.771 211.301C105.742 211.382 104.531 211.963 103.163 210.195C102.421 209.237 92.0603 209.352 90.9941 209.664C86.7004 210.921 88.042 211.516 83.2384 211.301C83.4589 203.498 83.3986 194.814 83.2664 186.994ZM88.6968 204.553H103.293V192.113H88.6968V204.553Z" fill="#FF0000"/>
<path d="M153.326 183.548C153.509 183.756 154.957 189.331 155.182 190.144C159.105 189.401 165.324 188.361 168.954 187.191L172.535 189.842C170.455 194.219 167.351 198.461 164.392 202.272L159.305 199.863C161.662 197.705 163.136 195.743 164.892 193.103L156.457 194.791L157.33 197.924C158.58 202.528 159.775 207.118 161.316 211.636L155.511 213C154.44 207.833 152.484 201.155 151.107 195.963L144.089 197.455L142.681 192.165C145.203 191.928 147.302 191.562 149.781 191.124C149.137 188.721 148.668 187.152 147.774 184.839L153.326 183.548Z" fill="#FF0000"/>
<path d="M323.203 183.631L329.216 183.633C328.984 185.404 328.978 187.323 328.932 189.12C331.154 189.149 334.651 189.203 336.73 188.739L340.142 190.829C337.115 202.314 335.718 209.022 322.867 212.803L318.873 208.08C320.201 207.746 321.601 207.335 322.928 206.971C329.894 204.261 332.054 200.971 333.49 193.82H318.449L318.495 200.67H313.183C313.31 196.751 313.248 192.89 313.206 188.972C316.276 189.194 320.263 189.11 323.411 189.12C323.434 187.189 323.333 185.56 323.203 183.631Z" fill="#FF0000"/>
<path d="M293.953 184.421L300.175 184.452C299.829 186.809 299.884 189.289 299.874 191.677C303.398 191.704 306.925 191.661 310.445 191.546V196.839C307.036 196.723 303.352 196.772 299.92 196.756C299.068 204.763 297.14 208.237 290.403 212.765L285.492 209.116C291.662 205.908 293.13 203.478 294.481 196.756C290.514 196.729 286.546 196.764 282.582 196.861V191.51C286.344 191.744 290.572 191.671 294.38 191.677C294.396 189.332 294.429 186.698 293.953 184.421Z" fill="#FF0000"/>
<path d="M346.335 192.472C352.103 192.844 360.828 192.642 366.701 192.516V197.368C364.521 197.108 361.171 197.195 358.893 197.19V206.889C361.836 206.9 365.272 207.012 368.153 206.638C368.182 207.947 368.433 210.712 367.826 211.687L366.991 211.662C360.43 211.579 350.975 211.347 344.622 211.806V206.682C347.275 206.995 350.935 206.889 353.673 206.889V197.19C351.046 197.167 348.978 197.199 346.335 197.358V192.472Z" fill="#FF0000"/>
<path d="M136.252 183.712C137.589 184.801 139.244 186.373 140.562 187.551C137.58 190.365 135.259 192.214 131.945 194.533C131.941 200.23 131.781 206.605 132.199 212.227H125.992C126.459 209.152 126.298 202.706 126.288 199.333L126.247 198.132L125.935 197.931C122.392 199.414 119.309 200.77 115.613 201.821L112.796 197.014C121.699 195.103 130.458 190.918 136.252 183.712Z" fill="#FF0000"/>
<path d="M394.607 183.728L398.812 187.532C395.977 190.323 393.491 192.282 390.251 194.508C390.228 198.57 389.98 208.765 390.587 212.227H384.316C384.688 207.911 384.619 203.658 384.61 199.333L384.561 198.115C384.244 197.947 375.569 201.336 373.941 201.829L371.102 197.03C380.548 195.02 388.199 190.986 394.607 183.728Z" fill="#FF0000"/>
<path d="M245.305 193.081C246.099 193.158 248.108 194.563 248.911 195.068C245.131 204.67 241.955 209.338 231.74 212.769L227.777 208.341C230.64 207.623 232.495 206.927 235.121 205.623C238.946 203.206 240.025 202.039 242.126 198.031C235.768 197.969 229.409 198.005 223.052 198.141V193.138C227.784 193.395 240.821 193.494 245.305 193.081Z" fill="#FF0000"/>
<path d="M188.902 185.362H194.755C194.227 188.982 194.485 200.354 194.496 204.656C198.127 202.294 198.976 201.645 201.79 198.231L204.768 202.633L203.051 204.527C199.424 208.122 196.423 209.868 192.136 212.479L189.001 209.862C189.347 206.335 189.453 188.604 188.902 185.362Z" fill="#FF0000"/>
<path d="M277.218 189.96C277.593 190.343 279.93 194.671 280.354 195.44C280.014 196.009 279.665 196.57 279.3 197.123C274.027 205.06 265.24 210.265 255.985 212.125L252.639 206.917C263.448 205.189 272.115 199.855 277.218 189.96Z" fill="#FF0000"/>
<path d="M179.789 185.362H185.516C184.331 195.817 187.471 202.757 178.99 211.927L178.474 212.134C177.229 211.669 174.944 209.986 173.744 209.158C180.403 203.948 181.231 193.094 179.789 185.362Z" fill="#FF0000"/>
<path d="M226.113 185.072C229.353 185.554 242.535 185.458 245.998 185.068V190.245C241.832 189.86 230.298 189.917 226.113 190.24V185.072Z" fill="#FF0000"/>
<path d="M211.824 193.695C214.254 193.186 216.645 194.713 217.205 197.13C217.765 199.548 216.289 201.97 213.882 202.58C212.28 202.987 210.584 202.495 209.447 201.295C208.311 200.096 207.913 198.375 208.406 196.798C208.899 195.221 210.207 194.034 211.824 193.695Z" fill="#FF0000"/>
<path d="M257.403 185.28C260.501 187.313 263.257 189.732 265.945 192.267L262.109 196.19L261.928 196.274C259.601 194.505 256.366 191.372 253.728 189.251L257.403 185.28Z" fill="#FF0000"/>
</svg>
