<svg width="477" height="173" viewBox="0 0 477 173" fill="none" xmlns="http://www.w3.org/2000/svg">
<path d="M296.417 0.139348C297.225 0.108834 298.034 0.0913083 298.842 0.0867209C313.292 0.0763862 327.718 -0.359115 339.117 10.3089C346.773 17.4766 345.127 27.5876 345.148 37.2643L345.176 65.7584C344.68 65.6907 344.184 65.612 343.694 65.5229C334.343 63.8126 318.429 55.6578 308.748 52.6115C305.078 51.4559 314.074 9.28879 298.845 21.1915C298.442 24.3334 298.496 31.0514 298.455 34.3786C298.341 43.9695 298.377 53.5617 298.561 63.1513C298.618 65.8301 298.452 67.5486 300.896 69.1158C301.715 69.6403 302.536 70.2155 303.438 70.5995C315.88 75.9006 330.327 78.2198 340.566 87.644C345.008 91.7343 346.251 96.4501 346.065 102.266C346.129 117.237 346.238 132.168 346.044 147.136C346.021 148.889 346.003 150.811 345.592 152.508C342.784 164.135 330.112 169.709 319.339 171.587C317.536 171.902 315.766 172.525 313.927 172.692C311.564 172.859 309.177 172.863 306.837 172.893C302.063 173.077 296.882 172.849 292.065 172.974C290.652 173.011 288.063 172.973 286.694 172.779C285.819 172.526 284.832 171.856 283.938 171.74C272.943 170.315 262.226 164.152 259.878 152.578C258.997 148.24 259.361 144.141 259.286 139.692C259.165 129.368 259.131 119.042 259.18 108.717C262.895 109.099 266.209 111.132 269.564 112.699C273.834 114.656 278.09 116.642 282.332 118.658C286.607 120.688 295.513 124.2 298.845 127.004C298.37 130.767 298.243 147.829 298.894 151.46C300.527 152.696 300.981 153.003 302.882 153.71C304.533 153.111 305.145 152.72 306.651 151.788C308.281 149.095 307.818 142.866 307.834 139.469C307.862 132.901 307.836 126.334 307.754 119.766C307.71 117.205 307.235 115.052 305.713 112.95C298.305 102.715 272.253 97.2692 262.086 87.4061C259.253 84.6578 258.367 82.1432 258.32 78.2531C258.17 65.8515 258.23 53.4349 258.258 41.0317C258.274 34.6799 257.638 25.2991 258.981 19.2743C259.844 15.4638 261.758 11.9699 264.506 9.18519C273.511 0.0577265 284.871 0.251715 296.417 0.139348Z" fill="#FF0000"/>
<path d="M202.702 0.131643C203.299 0.108138 203.896 0.0935762 204.493 0.0879836C218.745 -0.000827715 233.587 -0.337464 244.876 10.1612C252.34 17.1027 250.997 26.4062 251.046 35.7043L251.083 66.3079C249.349 65.8917 246.283 64.6386 244.483 63.9624L220.26 54.9663C218.128 54.1797 215.688 53.4524 213.69 52.5169C213.316 49.3675 213.42 44.5339 213.368 41.2219C213.232 34.5817 213.152 27.9407 213.127 21.2992C211.193 19.7405 210.598 19.3441 208.18 18.8382C207.277 19.2797 206.294 19.8268 205.56 20.5258C203.449 22.5383 203.925 26.6003 203.897 29.3012C203.826 36.1417 203.128 62.7024 204.639 67.1138C205.126 68.538 207.146 69.5843 208.419 70.2302C211.404 71.7448 214.663 72.7105 217.828 73.7754C222.593 75.3785 227.456 76.9691 232.082 78.9366C237.168 81.0999 242.719 83.816 246.611 87.8169C248.308 89.5609 250.323 92.0093 251.015 94.386C252.57 99.708 251.958 108.078 251.992 113.833C252.056 124.35 252.028 134.867 251.907 145.383C251.829 152.546 251.232 156.866 245.769 162.118C239.968 167.693 233.655 169.798 226.062 171.393C219.852 172.697 220.962 173.04 214.301 172.943C207.539 172.959 200.708 172.999 193.953 172.691C192.249 172.614 190.173 171.902 188.459 171.603C179.67 170.539 167.427 163.319 165.951 153.788C165.235 149.162 165.62 139.164 165.571 133.981L165.367 118.422C165.333 115.619 165.189 111.932 165.42 109.231C166.478 108.625 167.926 109.213 168.955 109.689C173.576 112.063 179.578 114.37 184.029 116.774C188.175 119.013 202 124.04 204.207 127.195C203.979 131.251 203 147.44 204.671 150.661C205.58 152.412 207.052 153.115 208.826 153.709C210.601 153.045 211.565 152.306 213.098 151.241C213.26 141.81 213.298 132.376 213.213 122.944C213.186 120.366 213.557 116.667 212.416 114.319C207.347 103.887 177.52 96.8865 167.817 87.3335C166.637 86.1719 165.183 84.6423 164.622 83.0529C163.814 80.7615 164.182 73.819 164.155 70.9575C164.069 59.3432 164.059 47.7284 164.123 36.1141C164.226 21.5237 162.775 10.3937 178.998 3.33127C187.189 -0.234607 193.969 0.206614 202.702 0.131643Z" fill="#FF0000"/>
<path d="M0 0.0732947L35.7232 0.0450748C35.8893 2.71271 36.292 5.49398 36.5229 8.18832L43.8098 100.292C44.3592 106.802 44.5938 113.261 45.2937 119.811C46.0012 126.428 45.473 131.828 47.3958 138.466L52.3704 45.6267L53.8977 19.3168C54.3738 12.3096 54.9839 7.32263 55.048 0.0749955L91.2932 0.052987C91.3487 3.04335 90.7299 7.23294 90.4628 10.3506L88.4697 32.4779C88.0068 39.2249 86.939 47.1813 86.2917 53.9978L80.4477 115.169C79.1208 129.883 77.8747 144.65 76.233 159.335C75.6629 164.434 75.9928 167.636 74.7906 172.942L17.3901 172.97C16.3899 169.342 16.3868 165.548 16.011 161.823C15.2779 154.556 14.4281 147.249 13.7044 139.987L11.6287 118.447L4.45488 47.83L1.60033 19.3954C0.906971 12.3328 0.156169 7.46695 0 0.0732947Z" fill="#FF0000"/>
<path d="M366.199 0.122418C381.604 -0.105023 397.345 0.0545593 412.774 0.0524717C412.843 10.1885 412.306 21.017 412.05 31.2112C407.401 31.1893 402.457 31.4483 397.782 31.454C395.77 31.4563 389.589 31.5176 387.956 31.8872C386.776 34.4062 387.367 57.6028 387.359 61.9635C387.359 62.8222 387.551 65.7533 388.258 66.4094C390.901 67.4434 404.283 66.8398 407.626 66.5118C408.124 77.5387 407.951 89.4996 407.698 100.527C401.153 100.473 394.279 100.774 387.563 100.743C387.212 104.977 386.897 137.802 387.806 140.957C388.715 141.645 406.084 141.706 408.736 141.744L412.523 141.8C412.737 152.181 412.825 162.563 412.787 172.946L354.752 172.981C354.713 115.632 354.302 57.6069 354.94 0.310503L366.199 0.122418Z" fill="#FF0000"/>
<path d="M99.4472 0.0744538L157.41 0.0488884C157.44 4.45036 157.19 28.0036 156.193 30.8288C155.263 31.4831 135.047 31.6223 132.077 31.6877C131.927 39.8238 131.883 47.9614 131.946 56.0987C131.969 58.5064 131.892 64.1838 132.39 66.31C133.378 67.2324 150.005 66.9857 152.141 66.9855C152.172 78.1665 152.097 89.3476 151.919 100.527C145.431 100.474 138.448 100.761 131.815 100.759C131.773 114.294 131.868 127.829 132.101 141.362L142.905 141.546C147.043 141.443 152.869 141.735 157.144 141.799C157.824 151.815 156.85 163.22 157.5 172.94L99.4617 172.985L99.4472 0.0744538Z" fill="#FF0000"/>
<path d="M419.877 0.0796105L455.215 0.0498432L455.197 104.348C455.143 114.794 455.189 125.241 455.336 135.687C455.357 138.655 455.254 147.902 455.703 150.271L476.928 150.246C476.92 157.458 476.706 165.889 477 173C471.323 172.675 462.835 172.944 456.902 172.942L419.962 172.983C419.773 159.242 419.944 145.139 419.941 131.364L419.947 17.8277C419.949 12.2694 420.127 5.50426 419.877 0.0796105Z" fill="#FF0000"/>
</svg>
