<svg width="127" height="135" viewBox="0 0 127 135" fill="none" xmlns="http://www.w3.org/2000/svg">
<path d="M18.75 134.7L0 115.35C5 109.15 11.45 101.5 19.35 92.4C27.25 83.3 35.7 73.8 44.7 63.9C35.7 54.4 27.25 45.65 19.35 37.65C11.45 29.65 5.05 23.2 0.15 18.3L19.5 0C24.2 4.6 30.35 10.85 37.95 18.75C45.65 26.65 53.85 35.3 62.55 44.7C70.55 36.3 78.35 28.3 85.95 20.7C93.65 13.1 100.65 6.6 106.95 1.19999L125.7 20.1C119.5 25.4 112.5 31.85 104.7 39.45C96.9 47.05 88.85 55.15 80.55 63.75C89.45 73.25 97.95 82.5 106.05 91.5C114.25 100.5 121.2 108.3 126.9 114.9L106.2 134.1C100.8 126.8 94.25 118.7 86.55 109.8C78.95 100.9 70.95 91.95 62.55 82.95C53.75 92.45 45.5 101.75 37.8 110.85C30.1 119.85 23.75 127.8 18.75 134.7Z" fill="#FA0000"/>
</svg>
